<?xml version="1.0" encoding="UTF-8"?> <svg xmlns="http://www.w3.org/2000/svg" xmlns:xlink="http://www.w3.org/1999/xlink" width="45px" height="35px" viewBox="0 0 45 35"><!-- Generator: Sketch 51.3 (57544) - http://www.bohemiancoding.com/sketch --><title>mc_vrt_pos</title><desc>Created with Sketch.</desc><defs></defs><g id="Home" stroke="none" stroke-width="1" fill="none" fill-rule="evenodd"><g id="1a-Home-Updated-Copy" transform="translate(-879.000000, -2794.000000)"><g id="Mastercard" transform="translate(870.000000, 2780.000000)"><g id="mc_vrt_pos" transform="translate(4.000000, 9.000000)"><rect id="Rectangle-path" x="0" y="0" width="54.9251701" height="45.0513605"></rect><path d="M13.6003401,39.3829932 L13.6003401,37.1380952 C13.6268075,36.7561615 13.4876507,36.3813062 13.2183712,36.109162 C12.9490916,35.8370178 12.5757299,35.6939021 12.1935374,35.7163265 C11.6898699,35.683307 11.2081505,35.9270341 10.9363946,36.352381 C10.6886311,35.9397161 10.2349681,35.6956569 9.75408163,35.7163265 C9.33537725,35.6951598 8.93677473,35.8973082 8.70646259,36.247619 L8.70646259,35.8061224 L7.92823129,35.8061224 L7.92823129,39.3829932 L8.71394558,39.3829932 L8.71394558,37.414966 C8.68010687,37.1673127 8.75857327,36.9174806 8.92793196,36.7336468 C9.09729065,36.549813 9.33986399,36.451166 9.58945578,36.4646259 C10.1057823,36.4646259 10.3676871,36.8013605 10.3676871,37.407483 L10.3676871,39.3979592 L11.1534014,39.3979592 L11.1534014,37.414966 C11.1209512,37.1675943 11.1998974,36.9185717 11.3689421,36.7350787 C11.5379868,36.5515858 11.7797141,36.4525269 12.0289116,36.4646259 C12.5602041,36.4646259 12.8146259,36.8013605 12.8146259,37.407483 L12.8146259,39.3979592 L13.6003401,39.3829932 Z M25.2251701,35.8061224 L23.9455782,35.8061224 L23.9455782,34.7210884 L23.1598639,34.7210884 L23.1598639,35.8061224 L22.4489796,35.8061224 L22.4489796,36.5170068 L23.1748299,36.5170068 L23.1748299,38.1632653 C23.1748299,38.9938776 23.4965986,39.4877551 24.4170068,39.4877551 C24.7608722,39.4889102 25.0980743,39.3929373 25.3897959,39.2108844 L25.1653061,38.544898 C24.9566067,38.6693812 24.7197428,38.7388956 24.4768707,38.7469388 C24.1027211,38.7469388 23.9605442,38.507483 23.9605442,38.1482993 L23.9605442,36.5170068 L25.2326531,36.5170068 L25.2251701,35.8061224 Z M31.862585,35.7163265 C31.4760575,35.7049589 31.1142793,35.9059468 30.9197279,36.2401361 L30.9197279,35.8061224 L30.1489796,35.8061224 L30.1489796,39.3829932 L30.9272109,39.3829932 L30.9272109,37.377551 C30.9272109,36.7863946 31.1816327,36.4571429 31.6755102,36.4571429 C31.8419635,36.454866 32.0072369,36.485378 32.1619048,36.5469388 L32.4013605,35.7986395 C32.223629,35.7350579 32.0363794,35.7021628 31.847619,35.7013605 L31.862585,35.7163265 Z M21.8278912,36.0904762 C21.3873767,35.8285628 20.8808996,35.6986969 20.3687075,35.7163265 C19.4632653,35.7163265 18.8721088,36.1503401 18.8721088,36.8612245 C18.8721088,37.444898 19.3061224,37.8040816 20.1068027,37.9163265 L20.4809524,37.9687075 C20.907483,38.0285714 21.1095238,38.1408163 21.1095238,38.3428571 C21.1095238,38.6197279 20.8251701,38.7768707 20.2938776,38.7768707 C19.8665247,38.7892409 19.44744,38.6574533 19.1040816,38.4027211 L18.729932,39.0088435 C19.1832569,39.3253706 19.7262258,39.487999 20.2789116,39.4727891 C21.3115646,39.4727891 21.9102041,38.9863946 21.9102041,38.3054422 C21.9102041,37.6244898 21.4387755,37.347619 20.6605442,37.2353741 L20.2863946,37.1829932 C19.9496599,37.1380952 19.6802721,37.0707483 19.6802721,36.8312925 C19.6802721,36.5918367 19.9346939,36.4122449 20.3612245,36.4122449 C20.7554569,36.4168245 21.1419236,36.5224588 21.4836735,36.7190476 L21.8278912,36.0904762 Z M42.6717687,35.7163265 C42.2852412,35.7049589 41.923463,35.9059468 41.7289116,36.2401361 L41.7289116,35.8061224 L40.9581633,35.8061224 L40.9581633,39.3829932 L41.7363946,39.3829932 L41.7363946,37.377551 C41.7363946,36.7863946 41.9908163,36.4571429 42.4846939,36.4571429 C42.6511471,36.454866 42.8164206,36.485378 42.9710884,36.5469388 L43.2105442,35.7986395 C43.0328126,35.7350579 42.8455631,35.7021628 42.6568027,35.7013605 L42.6717687,35.7163265 Z M32.6445578,37.5870748 C32.625842,38.0953328 32.8221685,38.5879486 33.1853477,38.9440066 C33.5485268,39.3000646 34.0449333,39.4865988 34.5527211,39.4578231 C35.0199886,39.4815965 35.4792032,39.329415 35.8397959,39.0312925 L35.4656463,38.4027211 C35.1966218,38.6078715 34.8685718,38.7207207 34.5302721,38.7244898 C33.9337656,38.6762257 33.4742678,38.1780477 33.4742678,37.5795918 C33.4742678,36.9811359 33.9337656,36.482958 34.5302721,36.4346939 C34.8685718,36.438463 35.1966218,36.5513122 35.4656463,36.7564626 L35.8397959,36.1278912 C35.4792032,35.8297687 35.0199886,35.6775871 34.5527211,35.7013605 C34.0449333,35.6725849 33.5485268,35.859119 33.1853477,36.2151771 C32.8221685,36.5712351 32.625842,37.0638509 32.6445578,37.5721088 L32.6445578,37.5870748 Z M39.9329932,37.5870748 L39.9329932,35.8061224 L39.1547619,35.8061224 L39.1547619,36.2401361 C38.8866475,35.8951514 38.4689367,35.7002197 38.0323129,35.7163265 C36.9991272,35.7163265 36.1615646,36.5538891 36.1615646,37.5870748 C36.1615646,38.6202606 36.9991272,39.4578231 38.0323129,39.4578231 C38.4689367,39.47393 38.8866475,39.2789983 39.1547619,38.9340136 L39.1547619,39.3680272 L39.9329932,39.3680272 L39.9329932,37.5870748 Z M37.0370748,37.5870748 C37.0716818,36.99991 37.569281,36.5481018 38.1570509,36.5701632 C38.7448208,36.5922246 39.2071512,37.0800629 39.1976454,37.6681698 C39.1881397,38.2562768 38.7102847,38.7289186 38.1221088,38.7319728 C37.8226167,38.7357623 37.535152,38.6142945 37.3291219,38.3968973 C37.1230919,38.1795 37.0172223,37.8859323 37.0370748,37.5870748 Z M27.6459184,35.7163265 C26.6127326,35.7307911 25.7868959,36.5800795 25.8013605,37.6132653 C25.8158251,38.6464511 26.6651136,39.4722877 27.6982993,39.4578231 C28.2366032,39.4854537 28.7659748,39.3121078 29.1836735,38.9714286 L28.8095238,38.3952381 C28.514081,38.6321791 28.1480653,38.7638394 27.7693878,38.7693878 C27.2344908,38.8153895 26.7601491,38.4272917 26.6993197,37.8938776 L29.3557823,37.8938776 C29.3557823,37.7965986 29.3557823,37.6993197 29.3557823,37.5945578 C29.3557823,36.4721088 28.6598639,35.7238095 27.6571429,35.7238095 L27.6459184,35.7163265 Z M27.6459184,36.4122449 C27.88111,36.4072307 28.1086554,36.4958785 28.2784704,36.6586763 C28.4482853,36.8214741 28.546451,37.0450783 28.5513605,37.2802721 L26.6806122,37.2802721 C26.7087963,36.7807162 27.1308932,36.3951789 27.6309524,36.4122449 L27.6459184,36.4122449 Z M47.1428571,37.5945578 L47.1428571,34.3693878 L46.3945578,34.3693878 L46.3945578,36.2401361 C46.1264434,35.8951514 45.7087326,35.7002197 45.2721088,35.7163265 C44.2389231,35.7163265 43.4013605,36.5538891 43.4013605,37.5870748 C43.4013605,38.6202606 44.2389231,39.4578231 45.2721088,39.4578231 C45.7087326,39.47393 46.1264434,39.2789983 46.3945578,38.9340136 L46.3945578,39.3680272 L47.1428571,39.3680272 L47.1428571,37.5945578 Z M48.4411565,38.8629252 C48.4898008,38.8623292 48.5380944,38.8712254 48.5833333,38.8891156 C48.6263017,38.9066498 48.665633,38.9320248 48.6993197,38.9639456 C48.732196,38.9962053 48.758833,39.0342582 48.7778912,39.0761905 C48.8161895,39.1645075 48.8161895,39.2647442 48.7778912,39.3530612 C48.758833,39.3949935 48.732196,39.4330464 48.6993197,39.4653061 C48.665633,39.4972269 48.6263017,39.5226019 48.5833333,39.5401361 C48.538541,39.5599006 48.4901155,39.5700954 48.4411565,39.570068 C48.2963791,39.5689768 48.1652259,39.4844558 48.1044218,39.3530612 C48.0665668,39.2646527 48.0665668,39.164599 48.1044218,39.0761905 C48.12348,39.0342582 48.150117,38.9962053 48.1829932,38.9639456 C48.2166799,38.9320248 48.2560112,38.9066498 48.2989796,38.8891156 C48.3477126,38.8697303 48.3999767,38.8608072 48.452381,38.8629252 L48.4411565,38.8629252 Z M48.4411565,39.4952381 C48.4785001,39.495465 48.5154721,39.4878156 48.5496599,39.4727891 C48.5818503,39.4584171 48.6110445,39.4381081 48.6357143,39.4129252 C48.7327302,39.3070756 48.7327302,39.1446251 48.6357143,39.0387755 C48.6111033,39.0135231 48.581895,38.9932043 48.5496599,38.9789116 C48.5154383,38.963991 48.4784891,38.9563463 48.4411565,38.9564626 C48.4038561,38.9566597 48.3669694,38.9642914 48.3326531,38.9789116 C48.2990374,38.9926953 48.2685096,39.0130471 48.2428571,39.0387755 C48.1458413,39.1446251 48.1458413,39.3070756 48.2428571,39.4129252 C48.2685726,39.4385767 48.2990841,39.4589177 48.3326531,39.4727891 C48.3704009,39.4890676 48.4113,39.4967362 48.452381,39.4952381 L48.4411565,39.4952381 Z M48.4636054,39.05 C48.4985328,39.0483062 48.5329507,39.0588963 48.5608844,39.079932 C48.5841199,39.0991618 48.5966574,39.1284157 48.5945578,39.1585034 C48.595644,39.1836295 48.5861434,39.2080595 48.5683673,39.2258503 C48.5466809,39.2455478 48.5190158,39.2574043 48.4897959,39.2595238 L48.5982993,39.3829932 L48.5122449,39.3829932 L48.4112245,39.2595238 L48.377551,39.2595238 L48.377551,39.3829932 L48.3064626,39.3829932 L48.3064626,39.0537415 L48.4636054,39.05 Z M48.3812925,39.1136054 L48.3812925,39.2034014 L48.4636054,39.2034014 C48.4782529,39.2077684 48.493856,39.2077684 48.5085034,39.2034014 C48.5138398,39.1928111 48.5138398,39.1803181 48.5085034,39.1697279 C48.5138398,39.1591377 48.5138398,39.1466446 48.5085034,39.1360544 C48.493856,39.1316874 48.4782529,39.1316874 48.4636054,39.1360544 L48.3812925,39.1136054 Z M44.2656463,37.5945578 C44.3002532,37.007393 44.7978524,36.5555848 45.3856223,36.5776462 C45.9733922,36.5997076 46.4357226,37.0875459 46.4262168,37.6756528 C46.4167111,38.2637598 45.9388561,38.7364016 45.3506803,38.7394558 C45.0511881,38.7432453 44.7637234,38.6217775 44.5576934,38.4043802 C44.3516633,38.186983 44.2457937,37.8934153 44.2656463,37.5945578 Z M17.9891156,37.5945578 L17.9891156,35.8061224 L17.2108844,35.8061224 L17.2108844,36.2401361 C16.94277,35.8951514 16.5250592,35.7002197 16.0884354,35.7163265 C15.0552496,35.7163265 14.2176871,36.5538891 14.2176871,37.5870748 C14.2176871,38.6202606 15.0552496,39.4578231 16.0884354,39.4578231 C16.5250592,39.47393 16.94277,39.2789983 17.2108844,38.9340136 L17.2108844,39.3680272 L17.9891156,39.3680272 L17.9891156,37.5945578 Z M15.0931973,37.5945578 C15.1278043,37.007393 15.6254034,36.5555848 16.2131733,36.5776462 C16.8009432,36.5997076 17.2632736,37.0875459 17.2537679,37.6756528 C17.2442621,38.2637598 16.7664071,38.7364016 16.1782313,38.7394558 C15.8774485,38.7453607 15.5879825,38.6248189 15.380293,38.4071718 C15.1726036,38.1895246 15.06574,37.8947348 15.0857143,37.5945578 L15.0931973,37.5945578 Z" id="Shape" fill="#231F20" fill-rule="nonzero"></path><g id="_Group_" transform="translate(5.612245, 5.612245)" fill-rule="nonzero"><rect id="Rectangle-path" fill="#FF5F00" x="15.957483" y="2.93707483" width="11.7857143" height="21.1806122"></rect><path d="M16.7057823,13.5292517 C16.7013758,9.39545629 18.598547,5.48935329 21.8503401,2.93707483 C16.3278127,-1.40304185 8.39724185,-0.770866324 3.63201962,4.38932544 C-1.13320261,9.5495172 -1.13320261,17.5052447 3.63201962,22.6654365 C8.39724185,27.8256282 16.3278127,28.4578038 21.8503401,24.1176871 C18.5995815,21.5662189 16.7025262,17.6617341 16.7057823,13.5292517 Z" id="_Path_" fill="#EB001B"></path><path d="M43.6445578,13.5292517 C43.6444376,18.6862988 40.6997833,23.3905835 36.061201,25.644178 C31.4226186,27.8977725 25.9044724,27.3050287 21.8503401,24.1176871 C25.0996804,21.5640527 26.9968785,17.6600871 26.9968785,13.527381 C26.9968785,9.39467478 25.0996804,5.49070918 21.8503401,2.93707483 C25.9044724,-0.250266771 31.4226186,-0.8430106 36.061201,1.41058392 C40.6997833,3.66417844 43.6444376,8.36846312 43.6445578,13.5255102 L43.6445578,13.5292517 Z" id="Shape" fill="#F79E1B"></path><path d="M42.357483,21.8727891 L42.357483,21.4387755 L42.5333333,21.4387755 L42.5333333,21.3489796 L42.0880952,21.3489796 L42.0880952,21.4387755 L42.2789116,21.4387755 L42.2789116,21.8727891 L42.357483,21.8727891 Z M43.2217687,21.8727891 L43.2217687,21.3489796 L43.0870748,21.3489796 L42.929932,21.7231293 L42.7727891,21.3489796 L42.6530612,21.3489796 L42.6530612,21.8727891 L42.7503401,21.8727891 L42.7503401,21.479932 L42.8962585,21.8204082 L42.9972789,21.8204082 L43.1431973,21.479932 L43.1431973,21.8765306 L43.2217687,21.8727891 Z" id="Shape" fill="#F79E1B"></path></g></g></g></g></g></svg> 