<?xml version="1.0" encoding="UTF-8"?> <svg xmlns="http://www.w3.org/2000/svg" xmlns:xlink="http://www.w3.org/1999/xlink" width="50px" height="26px" viewBox="0 0 50 26"><!-- Generator: Sketch 51.3 (57544) - http://www.bohemiancoding.com/sketch --><title>SAP-Logo</title><desc>Created with Sketch.</desc><defs></defs><g id="Home" stroke="none" stroke-width="1" fill="none" fill-rule="evenodd"><g id="1a-Home-Updated-Copy" transform="translate(-972.000000, -2721.000000)"><g id="SAP" transform="translate(961.000000, 2697.000000)"><g id="SAP-Logo" transform="translate(11.048780, 24.666667)"><polyline id="path25030" fill="#014185" fill-rule="nonzero" points="0.0659138272 24.5924447 24.8042191 24.5924447 49.0631032 0.0666666667 0.0659138272 0.0666666667 0.0659138272 24.5924447"></polyline><path d="M29.1190398,4.67622067 L24.3247946,4.67525133 L24.3247946,16.276238 L20.1058588,4.67525133 L15.9828079,4.67525133 L12.3391816,14.3773307 C11.9556419,11.933384 9.46263444,11.0886707 7.44905145,10.456348 C6.2025477,10.0315667 4.76427413,9.40700267 4.86015904,8.72424933 C4.86015904,8.15787467 5.53135337,7.63805133 6.96962693,7.71563667 C7.92847597,7.76509733 8.79144011,7.84559267 10.5173684,8.677698 L12.2432967,5.72265667 C10.6132533,4.92352533 8.5037854,4.41824867 6.77785712,4.41630933 C4.66838923,4.41630933 2.94246095,5.08742467 1.88772701,6.199808 C1.21653268,6.97372467 0.737108157,7.956152 0.737108157,9.04526 C0.737108157,10.543632 1.31241758,11.6065547 2.36715153,12.4532073 C3.42188547,13.1660253 4.57250432,13.6305687 5.72312318,13.970976 C7.06551183,14.390908 8.12024578,14.7545907 8.12024578,15.5343253 C8.12024578,15.822362 8.02436088,16.0842133 7.83259107,16.2946647 C7.44905145,16.64283 6.96962693,16.7747253 6.2025477,16.7912127 C4.86015904,16.8164273 3.90131,16.600158 2.27126662,15.6371267 L0.737108157,18.6290213 C2.36715153,19.5561693 4.28484961,20.101208 6.2025477,20.101208 L6.49020241,20.0992687 C8.12024578,20.068234 9.55851934,19.5784753 10.6132533,18.68818 C10.7091382,18.63581 10.7091382,18.5873187 10.8050231,18.538828 L10.3255986,19.841296 L14.7363042,19.841296 L15.4074985,17.5835553 C16.1745777,17.8434673 17.0375419,17.9947587 17.9963909,17.9947587 C18.95524,17.9947587 19.7223192,17.848316 20.4893984,17.601982 L21.2564777,19.841296 L28.3519606,19.841296 L28.3519606,15.1580353 L29.9820039,15.1580353 C33.7215152,15.1580353 35.926868,13.2174253 35.926868,9.96271 C35.926868,6.339462 33.8174001,4.67622067 29.1190398,4.67622067 Z M17.9963909,14.6081473 C17.4210815,14.6081473 16.941657,14.507286 16.4622324,14.3307793 L17.9963909,9.45064467 L19.5305494,14.346296 C19.0511249,14.5131053 18.5717003,14.6081473 17.9963909,14.6081473 Z M29.4066945,11.8014887 L28.3519606,11.8014887 L28.3519606,7.86692867 L29.4066945,7.86692867 C30.8449681,7.86692867 31.9955869,8.34311 31.9955869,9.81432733 C31.9955869,11.3272467 30.8449681,11.8014887 29.4066945,11.8014887 Z" id="path25032" fill="#FFFFFF"></path><path d="M30.8449681,23.0252153 C30.8449681,22.2755447 31.4202775,21.7043207 32.0914718,21.7043207 C32.7626662,21.7043207 33.3379756,22.2755447 33.3379756,23.0252153 C33.3379756,23.8030107 32.7626662,24.3635667 32.0914718,24.3635667 C31.4202775,24.3635667 30.8449681,23.8030107 30.8449681,23.0252153 Z M32.0914718,24.6292973 C32.954436,24.6292973 33.7215152,23.949454 33.7215152,23.0252153 C33.7215152,22.114554 32.954436,21.4453787 32.0914718,21.4453787 C31.2285077,21.4453787 30.4614285,22.114554 30.4614285,23.0252153 C30.4614285,23.949454 31.2285077,24.6292973 32.0914718,24.6292973 Z M31.8038171,23.1580807 L32.0914718,23.1580807 L32.5708964,23.949454 L32.8585511,23.949454 L32.3791265,23.1425633 C32.5708964,23.1095893 32.8585511,22.967026 32.8585511,22.6411667 C32.8585511,22.2755447 32.5708964,22.114554 32.1873567,22.114554 L31.5161624,22.114554 L31.5161624,23.949454 L31.8038171,23.949454 L31.8038171,23.1580807 Z M31.8038171,22.9214447 L31.8038171,22.3482807 L32.1873567,22.3482807 C32.2832416,22.3482807 32.5708964,22.3928927 32.5708964,22.6246793 C32.5708964,22.903018 32.2832416,22.9214447 32.0914718,22.9214447 L31.8038171,22.9214447 Z" id="path25034" fill="#014185" fill-rule="nonzero"></path></g></g></g></g></svg> 