<?xml version="1.0" encoding="UTF-8"?> <svg xmlns="http://www.w3.org/2000/svg" width="18" height="18" viewBox="0 0 18 18" fill="none"><path d="M12.23 13.9655H16.7557C17.4416 13.9655 18 13.4106 18 12.7262V1.23935C18 0.556083 17.4429 0 16.7557 0H1.24431C0.558442 0 0 0.554874 0 1.23935V12.7262C0 13.4094 0.557099 13.9655 1.24431 13.9655H5.76997L5.18972 16.4743C5.0744 16.973 5.39681 17.3793 5.91046 17.3793H12.0895C12.6043 17.3793 12.9259 16.9741 12.8103 16.4743L12.23 13.9655Z" fill="#B9B6F1"></path><path d="M16.4486 2.1734C16.4486 1.83125 16.183 1.552 15.8554 1.552H2.14516C1.81688 1.552 1.552 1.83021 1.552 2.1734V11.172C1.552 11.5141 1.81757 11.7934 2.14516 11.7934H15.8554C16.1837 11.7934 16.4486 11.5152 16.4486 11.172V2.1734Z" fill="#5745B1"></path></svg> 