<?xml version="1.0" encoding="UTF-8"?> <svg xmlns="http://www.w3.org/2000/svg" width="17" height="20" viewBox="0 0 17 20" fill="none"><path d="M16.25 9.25978L9.09615 0.889282H7.90385L0.75 9.25978C0.75 9.25978 2.2026 11.3016 2.9791 13.4448C3.75559 15.5879 3.78261 17.6298 3.78261 17.6298H13.2174C13.2174 17.6298 13.2811 15.4866 14.0209 13.4448C14.7607 11.4029 16.25 9.25978 16.25 9.25978Z" fill="#B9B6F1"></path><path d="M9.11998 8.14887V0.889893H7.87998V8.14887C7.33255 8.38805 6.94998 8.93429 6.94998 9.56989C6.94998 10.4259 7.64394 11.1199 8.49998 11.1199C9.35602 11.1199 10.05 10.4259 10.05 9.56989C10.05 8.93429 9.66741 8.38805 9.11998 8.14887ZM3.22998 17.9393C3.22998 17.5972 3.50648 17.3199 3.84996 17.3199H13.15C13.4924 17.3199 13.77 17.5948 13.77 17.9393V19.1805C13.77 19.5226 13.4935 19.7999 13.15 19.7999H3.84996C3.50755 19.7999 3.22998 19.525 3.22998 19.1805V17.9393Z" fill="#5745B1"></path></svg> 