<?xml version="1.0" encoding="UTF-8"?> <svg xmlns="http://www.w3.org/2000/svg" width="18" height="16" viewBox="0 0 18 16" fill="none"><path d="M6.82736 2.01725V4.18965C6.82736 4.44636 7.03577 4.65517 7.29126 4.65517H10.7083C10.9637 4.65517 11.1722 4.44654 11.1722 4.18965V2.01725C11.1722 1.76054 10.9638 1.55172 10.7083 1.55172H7.29126C7.03583 1.55172 6.82736 1.76036 6.82736 2.01725ZM5.27563 2.01725C5.27563 0.903627 6.17858 0 7.29126 0H10.7083C11.8214 0 12.7239 0.904215 12.7239 2.01725V4.18965C12.7239 5.30327 11.821 6.2069 10.7083 6.2069H7.29126C6.17811 6.2069 5.27563 5.30268 5.27563 4.18965V2.01725Z" fill="#5745B1"></path><path d="M16.7557 15.8279C17.4416 15.8279 18 15.2721 18 14.5865V4.65545C18 3.97157 17.4429 3.41406 16.7557 3.41406H1.24431C0.558442 3.41406 0 3.96985 0 4.65545V14.5865C0 15.2703 0.557099 15.8279 1.24431 15.8279H16.7557Z" fill="#B9B6F1"></path><path d="M2.48291 3.41406H4.34498V15.8279H2.48291V3.41406ZM13.6553 3.41406H15.5174V15.8279H13.6553V3.41406Z" fill="#5745B1"></path></svg> 