<?xml version="1.0" encoding="UTF-8"?> <svg xmlns="http://www.w3.org/2000/svg" width="16" height="16" viewBox="0 0 16 16" fill="none"><path d="M7.21886 9.69847L2.97247 5.45209L1.3456 5.09731L0 2.47961L1.27209 1.20752L3.88979 2.55312L4.24457 4.17999L8.49096 8.42638L8.70815 8.2092C9.17366 7.74368 9.93047 7.74574 10.3955 8.21073L14.2269 12.0422C14.6933 12.5086 14.6921 13.2659 14.2285 13.7295L12.522 15.436C12.0565 15.9015 11.2997 15.8994 10.8347 15.4344L7.00321 11.603C6.53685 11.1366 6.53805 10.3793 7.00168 9.91566L7.21887 9.69848L7.21886 9.69847Z" fill="#B9B6F1"></path><path d="M7.42367 6.41933C6.64043 4.75138 6.93909 2.70032 8.31889 1.32052C9.69505 -0.0556333 11.7389 -0.356349 13.4045 0.419124L10.899 2.63454C10.527 2.9634 10.3057 3.6232 10.4027 4.10989L10.5332 4.76475C10.598 5.08992 10.9119 5.40227 11.2351 5.46669L11.89 5.59722C12.3772 5.69432 13.0372 5.47202 13.3653 5.10093L15.5808 2.59541C16.3562 4.26097 16.0555 6.30484 14.6794 7.68099C13.2996 9.06079 11.2485 9.35945 9.58057 8.57621C9.53777 8.63405 9.49105 8.68981 9.4404 8.74312L3.78781 14.6928C3.12068 15.395 2.02469 15.409 1.34132 14.7256L1.27424 14.6586C0.590208 13.9745 0.606089 12.8781 1.3071 12.2121L7.25676 6.55948C7.31008 6.50883 7.36584 6.46211 7.42367 6.41933Z" fill="#5745B1"></path></svg> 