<?xml version="1.0" encoding="UTF-8"?> <svg xmlns="http://www.w3.org/2000/svg" width="28" height="28" viewBox="0 0 28 28" fill="none"><path d="M14 28C21.732 28 28 21.732 28 14C28 6.26801 21.732 0 14 0C6.26801 0 0 6.26801 0 14C0 21.732 6.26801 28 14 28Z" fill="#EDEBFF"></path><path d="M14.0332 14.9227L9.18313 18.0091C9.22033 18.1599 9.24007 18.3176 9.24007 18.48C9.24007 19.5625 8.36255 20.44 7.28007 20.44C6.19759 20.44 5.32007 19.5625 5.32007 18.48C5.32007 17.3975 6.19759 16.52 7.28007 16.52C7.79526 16.52 8.26403 16.7188 8.61386 17.0438L13.0495 14.2211L8.68629 10.6167C8.35541 10.8095 7.97064 10.92 7.56007 10.92C6.32295 10.92 5.32007 9.9171 5.32007 8.67998C5.32007 7.44286 6.32295 6.43998 7.56007 6.43998C8.79719 6.43998 9.80007 7.44286 9.80007 8.67998C9.80007 9.09817 9.68547 9.4896 9.48596 9.82457L13.7715 13.3648L16.8699 8.07948C16.4812 7.69836 16.2401 7.16733 16.2401 6.57998C16.2401 5.42018 17.1803 4.47998 18.3401 4.47998C19.4999 4.47998 20.4401 5.42018 20.4401 6.57998C20.4401 7.73978 19.4999 8.67998 18.3401 8.67998C18.1713 8.67998 18.0071 8.66006 17.8498 8.62245L14.6963 14.002L19.959 16.6334C20.3657 16.2178 20.9328 15.96 21.5601 15.96C22.7972 15.96 23.8001 16.9629 23.8001 18.2C23.8001 19.4371 22.7972 20.44 21.5601 20.44C20.323 20.44 19.3201 19.4371 19.3201 18.2C19.3201 17.9943 19.3478 17.7951 19.3997 17.6059L14.0332 14.9227ZM14.0001 23.24C13.0722 23.24 12.3201 22.4878 12.3201 21.56C12.3201 20.6321 13.0722 19.88 14.0001 19.88C14.9279 19.88 15.6801 20.6321 15.6801 21.56C15.6801 22.4878 14.9279 23.24 14.0001 23.24Z" fill="#8282DC"></path><path d="M13.8601 17.92C15.7931 17.92 17.3601 16.353 17.3601 14.42C17.3601 12.487 15.7931 10.92 13.8601 10.92C11.9271 10.92 10.3601 12.487 10.3601 14.42C10.3601 16.353 11.9271 17.92 13.8601 17.92Z" fill="#5745B1"></path></svg> 