<?xml version="1.0" encoding="UTF-8"?> <svg xmlns="http://www.w3.org/2000/svg" width="18" height="16" viewBox="0 0 18 16" fill="none"><path d="M10.8152 14.4923C14.1557 14.4923 17.4686 10.5746 17.4686 7.23405C16.8637 2.39524 12.946 0.580688 9.60551 0.580688C6.26501 0.580688 2.95215 4.4984 2.95215 7.8389C2.95215 11.1794 7.47471 14.4923 10.8152 14.4923Z" fill="#8282DC"></path><path d="M3.48363 1.1634C3.48363 0.520874 4.00455 0 4.64703 0H16.8367C17.4792 0 18.0001 0.520784 18.0001 1.16286V13.356C18.0001 14.4779 17.09 15.3874 15.9696 15.3874H2.03198V13.6454H3.48363V1.1634ZM5.51593 3.19362C5.51593 3.51654 5.77687 3.77427 6.09875 3.77427H15.0946C15.416 3.77427 15.6774 3.5143 15.6774 3.19362C15.6774 2.87069 15.4165 2.61296 15.0946 2.61296H6.09875C5.77732 2.61296 5.51593 2.87293 5.51593 3.19362ZM5.51593 5.80657C5.51593 6.1295 5.77687 6.38723 6.09875 6.38723H15.0946C15.416 6.38723 15.6774 6.12726 15.6774 5.80657C15.6774 5.48365 15.4165 5.22592 15.0946 5.22592H6.09875C5.77732 5.22592 5.51593 5.48588 5.51593 5.80657ZM5.51593 8.41953C5.51593 8.74245 5.77687 9.00019 6.09875 9.00019H15.0946C15.416 9.00019 15.6774 8.74022 15.6774 8.41953C15.6774 8.09661 15.4165 7.83887 15.0946 7.83887H6.09875C5.77732 7.83887 5.51593 8.09884 5.51593 8.41953ZM5.51593 11.0325C5.51593 11.3554 5.77687 11.6131 6.09875 11.6131H15.0946C15.416 11.6131 15.6774 11.3532 15.6774 11.0325C15.6774 10.7096 15.4165 10.4518 15.0946 10.4518H6.09875C5.77732 10.4518 5.51593 10.7118 5.51593 11.0325Z" fill="#B9B6F1"></path><path d="M0 4.64679C0 4.00447 0.521582 3.48376 1.1601 3.48376H3.48394V13.6436C3.48394 14.6066 2.70208 15.3872 1.74197 15.3872C0.779907 15.3872 0 14.6062 0 13.6436V4.64679Z" fill="#5745B1"></path></svg> 