<?xml version="1.0" encoding="UTF-8"?> <svg xmlns="http://www.w3.org/2000/svg" width="18" height="18" viewBox="0 0 18 18" fill="none"><path d="M9 18C13.9706 18 18 13.9706 18 9C18 4.02944 13.9706 0 9 0C4.02944 0 0 4.02944 0 9C0 13.9706 4.02944 18 9 18Z" fill="#B9B6F1"></path><path d="M2.65958 16.2699C2.51006 16.7263 2.72898 16.9041 3.14725 16.6678L10.9041 12.2845C11.5675 11.9097 12.3106 11.0251 12.5652 10.305L15.5348 1.90479C15.6952 1.45121 15.4834 1.26632 15.0583 1.49362L7.11227 5.74313C6.43976 6.10279 5.70236 6.98115 5.46471 7.70662L2.65958 16.2699Z" fill="#5745B1"></path><path d="M9.00032 10.4519C9.80202 10.4519 10.4519 9.80202 10.4519 9.00032C10.4519 8.19862 9.80202 7.54871 9.00032 7.54871C8.19862 7.54871 7.54871 8.19862 7.54871 9.00032C7.54871 9.80202 8.19862 10.4519 9.00032 10.4519Z" fill="#B9B6F1"></path></svg> 