<?xml version="1.0" encoding="UTF-8"?> <svg xmlns="http://www.w3.org/2000/svg" width="28" height="28" viewBox="0 0 28 28" fill="none"><path d="M14 28C21.732 28 28 21.732 28 14C28 6.26801 21.732 0 14 0C6.26801 0 0 6.26801 0 14C0 21.732 6.26801 28 14 28Z" fill="#EDEBFF"></path><path d="M14.1469 22.9599C9.05157 22.9599 5.04004 18.9484 5.04004 14.1468C5.04004 9.05145 9.05157 5.03992 14.1469 5.03992C18.9485 5.03992 22.96 9.05145 22.96 14.1468C22.96 18.9484 18.9485 22.9599 14.1469 22.9599ZM14 18.1999C16.3196 18.1999 18.2 16.3195 18.2 13.9999C18.2 11.6803 16.3196 9.79992 14 9.79992C11.6804 9.79992 9.80004 11.6803 9.80004 13.9999C9.80004 16.3195 11.6804 18.1999 14 18.1999Z" fill="#8282DC"></path><path d="M11.5732 10.5722C11.508 10.5364 11.4611 10.4702 11.4522 10.39L10.9477 5.8499C10.9346 5.7314 11.0017 5.60508 11.1055 5.54418C12.0303 5.22504 13.0265 5.04867 14.0689 5.04028C15.5917 5.05409 16.8403 5.51974 16.8403 5.51974C16.9727 5.56405 17.0672 5.71471 17.0522 5.8499L16.5477 10.39C16.5387 10.4714 16.4924 10.5368 16.4272 10.572C15.7419 10.086 14.9044 9.80028 14.0003 9.80028C13.0961 9.80028 12.2586 10.086 11.5732 10.5722ZM16.4277 17.4282C16.4927 17.4634 16.5387 17.5288 16.5477 17.6099L17.0522 22.15C17.0672 22.2852 16.9727 22.4359 16.8403 22.4802C16.8403 22.4802 15.5917 22.9458 14.0689 22.9597C13.0314 22.9513 12.0396 22.7766 11.1185 22.4629C11.0073 22.4052 10.934 22.2734 10.9477 22.15L11.4522 17.6099C11.4611 17.53 11.5078 17.4639 11.5727 17.4281C12.2582 17.9144 13.0958 18.2003 14.0003 18.2003C14.9047 18.2003 15.7423 17.9144 16.4277 17.4282ZM17.4281 11.5727C17.4639 11.5078 17.53 11.4611 17.6099 11.4522L22.15 10.9477C22.2734 10.934 22.4052 11.0073 22.4629 11.1185C22.7766 12.0396 22.9513 13.0314 22.9597 14.0689C22.9458 15.5917 22.4802 16.8403 22.4802 16.8403C22.4359 16.9727 22.2852 17.0672 22.15 17.0522L17.6099 16.5477C17.5288 16.5387 17.4634 16.4927 17.4282 16.4277C17.9144 15.7423 18.2003 14.9047 18.2003 14.0003C18.2003 13.0958 17.9144 12.2582 17.4281 11.5727ZM10.572 16.4272C10.5368 16.4924 10.4714 16.5387 10.39 16.5477L5.8499 17.0522C5.71471 17.0672 5.56405 16.9727 5.51974 16.8403C5.51974 16.8403 5.05409 15.5917 5.04028 14.0689C5.04867 13.0265 5.22504 12.0303 5.54418 11.1055C5.60508 11.0017 5.7314 10.9346 5.8499 10.9477L10.39 11.4522C10.4702 11.4611 10.5364 11.508 10.5722 11.5732C10.086 12.2586 9.80028 13.0961 9.80028 14.0003C9.80028 14.9044 10.086 15.7419 10.572 16.4272Z" fill="#5745B1"></path></svg> 