<?xml version="1.0" encoding="UTF-8"?> <svg xmlns="http://www.w3.org/2000/svg" xmlns:xlink="http://www.w3.org/1999/xlink" width="111px" height="21px" viewBox="0 0 111 21"><!-- Generator: sketchtool 49.3 (51167) - http://www.bohemiancoding.com/sketch --><title>8750CA47-3C69-4030-B8FB-9C8DD0D2B7A5</title><desc>Created with sketchtool.</desc><defs></defs><g id="Design" stroke="none" stroke-width="1" fill="none" fill-rule="evenodd" opacity="0.699999988"><g id="1c-Home-Logo" transform="translate(-165.000000, -76.000000)" fill="#1B1A2B"><g id="Section-1" transform="translate(150.000000, 64.000000)"><g id="Line-1" transform="translate(15.000000, 0.000000)"><g id="Deloitte" transform="translate(0.000000, 12.000000)"><path d="M31.3143145,16.4838973 C30.8029311,16.6644925 30.2704033,16.8279658 29.7374839,16.9408887 C29.1121553,17.0729719 28.4645075,17.1455361 27.806679,17.1455361 C25.6808749,17.1455361 24.0167254,16.4088871 23.744588,14.6551162 L32.8136153,14.6551162 C32.8809644,14.3183857 33,13.5030575 33,12.6453322 C33,8.65919283 31.0946468,5 26.2345472,5 C21.513453,5 19,8.85446392 19,13.1732572 C19,18.1520587 22.3431784,21 27.0110197,21 C28.1998098,21 29.0690832,20.8891154 29.7864295,20.7374643 C30.5311853,20.5792907 31.3515131,20.3240929 32.0453656,20.0008153 L31.3143145,16.4838973 Z M26.1519271,8.57562169 C27.9496,8.57562169 28.4923086,10.2853649 28.4923086,11.2242152 L23.64748,11.2242152 C23.64748,9.894415 24.5355485,8.57562169 26.1519271,8.57562169 Z" id="Fill-1"></path><path d="M102.31422,16.4838973 C101.8032,16.6644925 101.270251,16.8279658 100.737301,16.9408887 C100.111546,17.0729719 99.4646453,17.1455361 98.80678,17.1455361 C96.6812486,17.1455361 95.017006,16.4088871 94.7448534,14.6551162 L103.813996,14.6551162 C103.881349,14.3183857 104,13.5030575 104,12.6453322 C104,8.65919283 102.09454,5 97.2349519,5 C92.5132021,5 90,8.85446392 90,13.1732572 C90,18.1520587 93.3429738,21 98.0114679,21 C99.1999329,21 100.068863,20.8891154 100.787033,20.7374643 C101.531047,20.5792907 102.351812,20.3240929 103.045312,20.0008153 L102.31422,16.4838973 Z M97.1523271,8.57562169 C98.9497091,8.57562169 99.4928396,10.2853649 99.4928396,11.2242152 L94.64774,11.2242152 C94.64774,9.894415 95.5354665,8.57562169 97.1523271,8.57562169 Z" id="Fill-3"></path><polygon id="Fill-5" points="36 20 41 20 41 0 36 0"></polygon><path d="M50.4378771,21 C54.1963135,21 58,18.4799163 58,12.8521921 C58,9.50119941 56.1351621,5 50.6737141,5 C45.0512067,5 43,9.3615577 43,13.1073853 C43,17.8078395 46.065881,21 50.4378771,21 M50.5026843,17.1966008 C48.9381072,17.1966008 47.9103947,15.549482 47.9103947,13.0028582 C47.9103947,10.9739703 48.5991155,8.80829888 50.5191737,8.80829888 C52.3717405,8.80829888 53.0293997,11.0531823 53.0293997,12.9804012 C53.0293997,15.5392742 52.0296809,17.1966008 50.5026843,17.1966008" id="Fill-7"></path><polygon id="Fill-8" points="60 21 65 21 65 6 60 6"></polygon><polygon id="Fill-9" points="60 4 65 4 65 0 60 0"></polygon><path d="M68.8277748,1.55515501 L68.8277748,5.64631899 L67,5.64631899 L67,9.3741889 L68.8277748,9.3741889 L68.8277748,15.5369703 C68.8277748,18.9263799 70.2931003,21 73.6380873,21 C74.2652724,21 74.9738855,20.9319074 75.626067,20.8289674 C76.2297705,20.7328367 76.7653017,20.6166787 76.9997387,20.5357686 C77.003526,20.5317632 76.9648951,16.6068253 76.9648951,16.5924057 C76.8118861,16.6480814 75.733249,16.8399423 75.3389859,16.8399423 C74.9568424,16.8399423 74.3883612,16.7886726 73.9819787,16.3488745 C73.6922464,16.0356485 73.4843209,15.5249539 73.4843209,14.6954258 L73.4843209,9.3741889 L76.5588912,9.3741889 L76.5588912,5.64631899 L73.4843209,5.64631899 L73.4843209,1 L68.8277748,1.55515501 Z" id="Fill-10"></path><path d="M80.8278441,1.55515501 L80.8278441,5.64631899 L79,5.64631899 L79,9.3741889 L80.8278441,9.3741889 L80.8278441,15.5369703 C80.8278441,18.9263799 82.293225,21 85.6383387,21 C86.2655476,21 86.9738087,20.9319074 87.6252575,20.8289674 C88.2297414,20.7328367 88.7652928,20.6166787 88.9997387,20.5357686 C89.0035261,20.5317632 88.9648937,16.6068253 88.9648937,16.5924057 C88.811879,16.6480814 87.7339585,16.8399423 87.338923,16.8399423 C86.956765,16.8399423 86.3886411,16.7886726 85.9822431,16.3488745 C85.6924999,16.0356485 85.485324,15.5249539 85.485324,14.6954258 L85.485324,9.3741889 L88.5588745,9.3741889 L88.5588745,5.64631899 L85.485324,5.64631899 L85.485324,1 L80.8278441,1.55515501 Z" id="Fill-11"></path><path d="M106,17.9993522 C106,16.3426906 107.119387,15 108.49964,15 C109.879893,15 111,16.3426906 111,17.9993522 C111,19.6573094 109.879893,21 108.49964,21 C107.119387,21 106,19.6573094 106,17.9993522" id="Fill-12"></path><path d="M7.30029467,16.8881573 C7.0905438,16.9055941 6.77511385,16.9132987 6.57299759,16.9132987 L4.97294401,16.9132987 C4.97535494,16.9120822 4.97294401,4.23025084 4.97294401,4.23025084 C5.52625234,4.18037345 6.22944013,4.14712186 6.69957139,4.14712186 C9.63327083,4.14712186 12.7594428,6.06800935 12.7594428,10.5050688 C12.7594428,15.1339332 9.82132333,16.6781045 7.30029467,16.8881573 Z M0,21 L5.71068845,21 C6.09764265,21 6.56496116,20.9902678 6.93142245,20.971209 C14.747656,20.5636743 18,15.8954757 18,10.5050688 C18,3.77162222 13.5,0 5.73319046,0 C3.74015537,0 1.96772033,0.0681252052 0,0.236005175 L0,21 Z" id="Fill-13"></path></g></g></g></g></g></svg> 