<?xml version="1.0" encoding="UTF-8"?>
<svg width="203px" height="60px" viewBox="0 0 203 60" version="1.1" xmlns="http://www.w3.org/2000/svg" xmlns:xlink="http://www.w3.org/1999/xlink">
    <!-- Generator: Sketch 64 (93537) - https://sketch.com -->
    <title>Group</title>
    <desc>Created with Sketch.</desc>
    <g id="Linkedin" stroke="none" stroke-width="1" fill="none" fill-rule="evenodd">
        <g id="Post" transform="translate(-34.000000, -79.000000)" fill="#FFFFFF">
            <g id="Group" transform="translate(34.000000, 79.000000)">
                <path d="M39.6229347,36.1344245 C23.3744369,51.5461664 11.8918669,59.999942 11.8918669,59.999942 C11.8918669,59.999942 11.8918669,51.2992747 15.6640389,41.8145542 C25.4991645,38.9573948 33.1745625,35.5422629 39.6229347,31.6130775 C43.8645522,29.0271341 49.9937354,23.8133554 50.5165728,24.3648413 C50.9180589,24.7852463 46.2254958,29.8721333 39.6229347,36.1344245 Z" id="Path"></path>
                <path d="M42.9841476,15.8174171 C31.6398343,16.7724162 34.3864532,17.090524 32.6406441,16.7724162 C30.894835,16.4543084 22.4807891,0.540404883 29.5251066,0.540404883 C36.5694241,0.540404883 55.329406,14.8630937 54.9954874,15.1812015 C54.6615688,15.4993093 54.3269745,14.8630937 42.9841476,15.8174171 Z" id="Path"></path>
                <path d="M51.3521125,20.5199802 C37.372126,31.7365909 25.9463263,33.9569942 17.6551181,33.0665897 C16.4637679,32.935779 15.2818771,32.7298332 14.1160674,32.4498335 C4.75609,30.1897005 0,25.7106508 0,23.7672743 C0,21.824033 54.9999468,16.3545788 54.9999468,16.9347134 C54.9999468,17.5148479 52.4169763,19.6661972 51.3521125,20.5199802 Z" id="Path"></path>
                <path d="M189.768735,18.9879546 C185.544415,18.9879546 182.540364,22.2341677 182.540364,26.6744337 C182.540364,31.1146996 185.544415,34.3618587 189.768735,34.3618587 C194.040353,34.3618587 197.045755,31.1155105 197.045755,26.6744337 C197.045755,22.2333569 194.040353,18.9879546 189.768735,18.9879546 Z M189.768735,14.1180809 C196.998458,14.1180809 202.161967,19.5611973 202.161967,26.7226769 C202.161967,33.8840213 196.998458,39.3272593 189.768735,39.3272593 C182.587661,39.3272593 177.422801,33.8840213 177.422801,26.7226769 C177.422801,19.5611973 182.587661,14.1180809 189.768735,14.1180809 Z M161.743087,19.020387 C157.517415,19.020387 154.513364,22.2666001 154.513364,26.7068661 C154.513364,31.147132 157.517415,34.3942911 161.743087,34.3942911 C166.014704,34.3942911 169.018756,31.1479429 169.018756,26.7068661 C169.018756,22.2657893 166.014704,19.0211978 161.743087,19.0211978 L161.743087,19.020387 Z M161.743087,14.1504863 C168.971458,14.1504863 174.134967,19.5936297 174.134967,26.7551093 C174.134967,33.9164537 168.971458,39.3595565 161.743087,39.3595565 C154.560661,39.3595565 149.397153,33.9164537 149.397153,26.7551093 C149.397153,19.5936297 154.560661,14.1513242 161.743087,14.1513242 L161.743087,14.1504863 Z M132.47271,34.5296963 C136.040409,34.5296963 139.653919,31.9040232 139.653919,26.7002445 C139.653919,21.4963306 136.086355,18.8699277 132.519196,18.8699277 C128.904335,18.8699277 125.478257,21.4456549 125.478257,26.7475417 C125.478257,31.904834 128.76393,34.5305072 132.47271,34.5305072 L132.47271,34.5296963 Z M144.864725,5.40540018 L144.864725,38.8278003 L139.749865,38.8278003 L139.749865,35.7244249 C137.544462,38.2545576 134.633383,39.3529349 131.628792,39.3529349 C125.808257,39.3529349 120.362721,34.7698312 120.362721,26.7010553 C120.362721,18.4403605 126.371094,14.1438377 132.19244,14.1438377 C135.051626,14.1438377 138.01338,15.1940799 139.65527,17.3427535 L139.65527,5.40623107 L144.864725,5.40540018 Z M115.854212,14.7636884 L115.854212,38.1590172 C115.854212,45.9892799 109.986245,49.9999517 104.071791,49.9999517 C99.0494988,49.9999517 93.7918012,47.1350896 92.3834242,40.9756361 L97.3119329,39.2573945 C98.0634187,42.9814449 101.069632,45.1300915 104.306251,45.1300915 C107.686653,45.1300915 110.737866,42.790364 110.737866,38.1590172 L110.737866,34.2919939 C109.37611,36.6791537 107.029086,38.5886113 103.649494,38.5886113 C99.1899041,38.5886113 94.2607197,35.485236 94.2607197,28.6103777 L94.2607197,14.7636884 L99.4758498,14.7636884 L99.4758498,27.7986218 C99.4758498,31.474429 101.588415,33.4802379 104.498277,33.4802379 C107.737328,33.4802379 110.648001,30.9975376 110.648001,26.3179475 L110.648001,14.7636884 L115.854212,14.7636884 Z M86.9354565,14.4313239 C87.9927528,14.442405 89.0405896,14.6362696 90.033967,15.0046477 L88.8600492,20.3522776 C87.9104555,19.9406564 86.8885646,19.7295755 85.8562683,19.7316025 C83.2274871,19.7316025 81.0210027,21.3543037 81.0210027,25.5087591 L81.0210027,38.8278003 L75.8107375,38.8278003 L75.8107375,14.7636884 L80.9319488,14.7636884 L80.9319488,17.6767802 C82.197353,15.3369987 84.6382965,14.4296617 86.9378889,14.4296617 L86.9354565,14.4313239 Z" id="Shape"></path>
            </g>
        </g>
    </g>
</svg>