<?xml version="1.0" encoding="UTF-8"?>
<svg width="85px" height="45px" viewBox="0 0 85 45" version="1.1" xmlns="http://www.w3.org/2000/svg" xmlns:xlink="http://www.w3.org/1999/xlink">
    <!-- Generator: sketchtool 49.3 (51167) - http://www.bohemiancoding.com/sketch -->
    <title>4A6E95BD-7E74-47C3-B557-7A51FC7687B6</title>
    <desc>Created with sketchtool.</desc>
    <defs></defs>
    <g id="Design" stroke="none" stroke-width="1" fill="none" fill-rule="evenodd" opacity="0.699999988">
        <g id="1c-Home-Logo" transform="translate(-178.000000, -412.000000)" fill-rule="nonzero">
            <g id="Section-1" transform="translate(150.000000, 64.000000)">
                <g id="ligne3" transform="translate(28.000000, 343.000000)">
                    <g id="kone-1" transform="translate(0.000000, 5.000000)">
                        <path d="M42.0008876,0.657254357 L22.2860413,0.656775318 L22.2850842,44.2344828 L42.000409,44.2325667 L42.0008876,0.657254357 Z M20.520754,44.2268182 L20.5260178,0.65581724 L0.800165405,0.656775318 L0.800165405,44.2344828 L20.520754,44.2268182 Z M84.8917681,44.2335247 L84.9003816,0.662523787 L65.3152162,0.649110692 L65.3190444,44.2344828 L84.8917681,44.2335247 Z M63.5403585,0.654380122 L43.7743097,0.655338201 L43.7704815,44.2344828 L63.5403585,44.2325667 L63.5403585,0.654380122 Z" id="Shape" fill="#1B1A2B"></path>
                        <path d="M30.1803061,14.228911 C30.9055563,14.0911485 31.6423943,14.0237708 32.3805747,14.0277146 C35.3369164,14.2327433 37.5993934,15.4408799 39.3120426,17.8772727 C41.0902501,20.9522247 40.9093668,24.1766368 39.1708771,27.2194932 C37.4357371,29.7100174 35.4211372,30.6336048 32.4513967,30.771089 C29.1476442,30.7662986 26.5746029,29.6836703 24.9141132,26.7265619 C23.4962368,23.6204724 23.5378687,20.6398912 25.2414259,17.6641003 C26.5425416,15.8039915 27.9766879,14.8008837 30.1803061,14.228911 Z M73.4764994,17.9860146 L73.4688429,20.601089 L80.1447773,20.6173764 L80.1356853,24.1469364 L73.4587938,24.1450203 L73.4587938,26.8611719 L81.3477949,26.8841658 L81.3506661,30.5425874 L68.9931771,30.5277372 L68.9950912,14.3577725 L81.3506661,14.3419642 L81.3458808,18.0046971 L73.4764994,17.9860146 Z M58.8579688,30.5708507 L50.5622195,22.6441908 L50.5760968,30.5339647 L46.4712896,30.5296533 L46.452627,14.3309463 L48.8782819,14.3256769 L56.7357002,22.3850306 L56.7562769,14.315138 L60.8797467,14.3180122 L60.8797467,30.5387551 L58.8579688,30.5708507 Z M13.5572247,30.5574376 L8.11493374,23.2870612 L8.1178049,30.5564795 L3.63113292,30.562228 L3.64501021,14.2054381 L8.14843065,14.1953782 L8.12785398,21.4978502 L13.6419241,14.1992106 L18.3587677,14.1953782 L12.4537408,22.1982054 L18.6655037,30.5718088 L13.5572247,30.5574376 Z" id="Shape" fill="#FFFFFF"></path>
                        <path d="M31.7154217,17.8293688 C29.8740487,18.1761931 29.0342333,19.0173858 28.363338,20.7376152 C28.0542093,21.9965299 28.0604302,22.879878 28.3968349,24.1344814 C29.064859,25.6923165 29.8094475,26.3816538 31.4149066,26.9330278 C32.2657281,27.0733862 32.771053,27.106919 33.6113469,26.9282374 C34.9871129,26.3136302 35.5096647,25.5284852 35.9786215,24.1268168 C36.2370262,22.8770038 36.2226704,21.9639553 35.9116276,20.7261182 C35.0971742,18.6696034 33.9582792,17.8217042 31.7154217,17.8293688 Z" id="Shape" fill="#1B1A2B"></path>
                    </g>
                </g>
            </g>
        </g>
    </g>
</svg>