<?xml version="1.0" encoding="UTF-8"?>
<svg width="130px" height="26px" viewBox="0 0 130 26" version="1.1" xmlns="http://www.w3.org/2000/svg" xmlns:xlink="http://www.w3.org/1999/xlink">
    <!-- Generator: sketchtool 49.3 (51167) - http://www.bohemiancoding.com/sketch -->
    <title>F597E41E-A279-4A6B-B57D-FF20996AE33E</title>
    <desc>Created with sketchtool.</desc>
    <defs></defs>
    <g id="Design" stroke="none" stroke-width="1" fill="none" fill-rule="evenodd" opacity="0.699999988">
        <g id="1c-Home-Logo" transform="translate(-150.000000, -249.000000)">
            <g id="Section-1" transform="translate(150.000000, 64.000000)">
                <g id="Line-2" transform="translate(0.000000, 173.000000)">
                    <g id="banco-sabadell" transform="translate(0.000000, 12.000000)">
                        <g id="Group-3" fill="#1B1A2B">
                            <path d="M8.43324444,17.0860444 C13.0895556,17.0860444 16.8653333,13.3108444 16.8653333,8.65453333 C16.8653333,3.99648889 13.0895556,0.221288889 8.43324444,0.221288889 C3.77635556,0.221288889 0,3.99648889 0,8.65453333 C0,13.3108444 3.77635556,17.0860444 8.43324444,17.0860444" id="Fill-1"></path>
                        </g>
                        <path d="M5.12373333,4.43328889 L5.12373333,12.8653778 L8.89777778,12.8653778 C9.62288889,12.8653778 10.4462222,12.8653778 11.0609778,12.4106667 C11.6503111,11.9808 12.0934667,11.3290667 12.0934667,10.5912444 C12.0934667,9.49808889 11.3804889,8.69786667 10.3358667,8.48928889 L10.3358667,8.4656 C11.2204444,8.24315556 11.8600444,7.60471111 11.8600444,6.64617778 C11.8600444,5.84595556 11.5029778,5.23235556 10.8275556,4.80248889 C10.2486222,4.43328889 9.56106667,4.43328889 8.89777778,4.43328889 L5.12373333,4.43328889 Z M7.09048889,5.9332 L8.28302222,5.9332 C8.61351111,5.9332 9.13004444,5.89564444 9.41373333,6.05568889 C9.68355556,6.21515556 9.83088889,6.5104 9.83088889,6.81777778 C9.83088889,7.10031111 9.70897778,7.40768889 9.47497778,7.58044444 C9.17973333,7.80115556 8.77471111,7.77573333 8.43035556,7.77573333 L7.09048889,7.77573333 L7.09048889,5.9332 Z M7.09048889,9.27506667 L8.54071111,9.27506667 C8.86022222,9.27506667 9.25368889,9.27506667 9.53564444,9.43626667 C9.81933333,9.59631111 10.0163556,9.92795556 10.0163556,10.2468889 C10.0163556,10.5912444 9.85515556,10.9361778 9.5732,11.1199111 C9.26582222,11.3290667 8.81053333,11.3048 8.45462222,11.3048 L7.09048889,11.3048 L7.09048889,9.27506667 Z" id="Fill-4" fill="#FFFFFE"></path>
                        <path d="M35.0844,9.11213333 C33.7832444,5.42475556 30.7458667,4.12244444 27.0278667,4.12244444 C25.0755556,4.12244444 23.2474667,4.55693333 21.6984444,5.85808889 C20.1806222,7.1292 19.4058222,8.86368889 19.4058222,10.8477778 C19.4058222,15.4948444 23.1244,16.6099556 26.9042222,17.3853333 C28.2053778,17.6649778 30.6233778,18.0047111 30.6233778,19.7709778 C30.6233778,21.5378222 28.7323111,22.0647556 27.3075111,22.0647556 C25.1067556,22.0647556 23.4959111,21.2899556 22.8759556,19.0585778 L18.2895556,20.1118667 C19.2509778,24.2643556 22.8759556,26 26.8724444,26 C29.0113778,26 31.3357778,25.5972889 33.0402222,24.2643556 C34.6811111,22.9949778 35.6743111,21.0108889 35.6743111,18.9349333 C35.6743111,16.8266222 34.6198667,15.0603556 32.8853778,13.9152 C31.3976,12.9237333 29.0732,12.4892444 27.3375556,12.1171556 C26.1294222,11.9004889 24.2701333,11.5289778 24.2701333,9.97937778 C24.2701333,8.33733333 25.8815556,7.99586667 27.2144889,7.99586667 C29.1038222,7.99586667 30.2507111,8.70884444 30.8712444,10.5063111 L35.0844,9.11213333 Z M51.5077333,25.6897333 C51.2592889,24.9155111 51.1980444,24.1401333 51.1980444,23.3347111 L51.1980444,15.9905778 C51.1980444,14.1012444 51.3528889,12.3656 49.7414667,11.0644444 C48.4709333,10.01 46.3649333,9.63848889 44.7523556,9.63848889 C41.4370667,9.63848889 37.7179111,10.7541778 37.2533778,14.5663556 L41.5612889,14.9679111 C41.5612889,13.4188889 42.8312444,12.6758667 44.2872444,12.6758667 C44.9701778,12.6758667 45.7449778,12.8919556 46.1471111,13.4188889 C46.6116444,14.0076444 46.5498222,14.8124889 46.5498222,15.4948444 L46.5498222,15.8675111 C44.6292889,16.0524 42.1182667,16.1766222 40.3219556,16.8584 C38.2448444,17.6337778 36.7882667,19.2145778 36.7882667,21.5378222 C36.7882667,24.5116444 38.9578222,26 41.7467556,26 C44.1023556,26 45.4653333,25.1015556 46.7664889,23.2422667 C46.7364444,24.0476889 46.7982667,24.8837333 46.9843111,25.6897333 L51.5077333,25.6897333 Z M46.5498222,18.7789333 C46.5498222,19.8952 46.5816,20.8248444 45.9298667,21.8168889 C45.4035111,22.6223111 44.5668889,23.1180444 43.6378222,23.1180444 C42.3661333,23.1180444 41.6231111,22.2814222 41.6231111,21.0415111 C41.6231111,18.7494667 44.8153333,18.3467556 46.5498222,18.1607111 L46.5498222,18.7789333 Z M58.3249333,16.8266222 C58.3249333,15.1545333 58.6346222,12.7688889 60.8353778,12.7688889 C63.3446667,12.7688889 63.3446667,16.0524 63.3446667,17.8198222 C63.3446667,19.5236889 63.3446667,22.8077778 60.7735556,22.8077778 C59.9357778,22.8077778 59.2857778,22.4044889 58.8512889,21.7232889 C58.3561333,20.9479111 58.3249333,19.9570222 58.3249333,19.0892 L58.3249333,16.8266222 Z M53.7079111,25.6897333 L56.1871556,25.6897333 C56.4656444,24.8536889 56.6522667,23.9552444 57.2104,23.2723111 C58.3561333,25.1639556 59.4406222,26 61.7026222,26 C66.4432889,26 68.0859111,21.9399556 68.0859111,17.8198222 C68.0859111,14.1012444 66.7223556,9.63848889 62.2301333,9.63848889 C60.4632889,9.63848889 59.1615556,10.3826667 58.3867556,11.9322667 L58.2631111,11.9322667 L58.2631111,4.43213333 L53.7079111,4.43213333 L53.7079111,25.6897333 Z M83.7332889,25.6897333 C83.4848444,24.9155111 83.4236,24.1401333 83.4236,23.3347111 L83.4236,15.9905778 C83.4236,14.1012444 83.5778667,12.3656 81.9670222,11.0644444 C80.6959111,10.01 78.5899111,9.63848889 76.9773333,9.63848889 C73.6626222,9.63848889 69.9440444,10.7541778 69.4789333,14.5663556 L73.7868444,14.9679111 C73.7868444,13.4188889 75.0568,12.6758667 76.5133778,12.6758667 C77.1951556,12.6758667 77.9699556,12.8919556 78.3726667,13.4188889 C78.8372,14.0076444 78.7753778,14.8124889 78.7753778,15.4948444 L78.7753778,15.8675111 C76.8548444,16.0524 74.3438222,16.1766222 72.5475111,16.8584 C70.4704,17.6337778 69.0144,19.2145778 69.0144,21.5378222 C69.0144,24.5116444 71.1833778,26 73.9723111,26 C76.3273333,26 77.6908889,25.1015556 78.9920444,23.2422667 C78.962,24.0476889 79.0232444,24.8837333 79.2098667,25.6897333 L83.7332889,25.6897333 Z M78.7753778,18.7789333 C78.7753778,19.8952 78.8065778,20.8248444 78.156,21.8168889 C77.6284889,22.6223111 76.7924444,23.1180444 75.8633778,23.1180444 C74.5922667,23.1180444 73.8486667,22.2814222 73.8486667,21.0415111 C73.8486667,18.7494667 77.0408889,18.3467556 78.7753778,18.1607111 L78.7753778,18.7789333 Z M99.3818222,25.6897333 L99.3818222,4.43213333 L94.8266222,4.43213333 L94.8266222,11.622 C93.8357333,10.1648444 92.6576444,9.63848889 90.8919556,9.63848889 C86.3055556,9.63848889 85.1274667,14.2560889 85.1274667,18.0047111 C85.1274667,21.6608889 86.3668,26 90.7977778,26 C92.8124889,26 94.1142222,24.9155111 94.9814667,23.2422667 L95.0432889,23.2422667 L95.0432889,25.6897333 L99.3818222,25.6897333 Z M94.8266222,19.1209778 C94.8266222,19.8952 94.7948444,20.7312444 94.4239111,21.4442222 C94.0524,22.1577778 93.2770222,22.7147556 92.4409778,22.7147556 C90.1784,22.7147556 89.9305333,19.8339556 89.9305333,18.1300889 C89.9305333,16.2390222 90.0241333,12.8307111 92.6264444,12.8307111 C94.7035556,12.8307111 94.8266222,15.4330222 94.8266222,16.952 L94.8266222,19.1209778 Z M116.114844,18.5940444 C116.146044,16.4556889 115.805156,14.2243111 114.504,12.4274222 C113.202844,10.6299556 110.940267,9.63848889 108.739511,9.63848889 C103.844578,9.63848889 101.086267,13.3882667 101.086267,18.0364889 C101.086267,22.7147556 104.154844,26 108.864311,26 C114.194311,26 116.021822,21.3517778 116.021822,20.5775556 L111.808089,20.2672889 C111.808089,21.7232889 110.413911,22.7465333 109.019733,22.7465333 C107.035067,22.7465333 105.982356,21.2287111 105.982356,19.3688444 L106.012978,18.5940444 L116.114844,18.5940444 Z M105.982356,15.8981333 C106.1372,14.1012444 106.912,12.6134667 108.925556,12.6134667 C110.908489,12.6134667 111.4672,14.1925333 111.560222,15.8981333 L105.982356,15.8981333 Z M118.1284,25.6897333 L122.684178,25.6897333 L122.684178,4.43213333 L118.1284,4.43213333 L118.1284,25.6897333 Z M124.946178,25.6897333 L129.501378,25.6897333 L129.501378,4.43213333 L124.946178,4.43213333 L124.946178,25.6897333 Z" id="Fill-5" fill="#1B1A2B"></path>
                    </g>
                </g>
            </g>
        </g>
    </g>
</svg>