<?xml version="1.0" encoding="UTF-8"?>
<svg width="141px" height="39px" viewBox="0 0 141 39" version="1.1" xmlns="http://www.w3.org/2000/svg" xmlns:xlink="http://www.w3.org/1999/xlink">
    <!-- Generator: sketchtool 49.3 (51167) - http://www.bohemiancoding.com/sketch -->
    <title>FC21B163-4D12-4D5C-8892-93363638B2FD</title>
    <desc>Created with sketchtool.</desc>
    <defs></defs>
    <g id="Design" stroke="none" stroke-width="1" fill="none" fill-rule="evenodd" opacity="0.699999988">
        <g id="1c-Home-Logo" transform="translate(-152.000000, -592.000000)">
            <g id="Section-1" transform="translate(150.000000, 64.000000)">
                <g id="ligne-4" transform="translate(2.000000, 519.000000)">
                    <g id="scania-3" transform="translate(0.000000, 9.000000)">
                        <path d="M20.406551,4.43565306 C24.7888776,4.43565306 29.1417551,3.90477551 33.3457959,2.84222449 L33.8766735,2.70930612 L34.2746327,3.07781633 C37.284,5.86591837 39.3494082,9.46585714 40.2639184,13.494 L40.3817143,14.0248776 L39.9980816,14.4228367 C33.920449,20.6938776 29.464898,28.4381633 27.1193265,36.7897347 L26.9720816,37.3214082 L26.4412041,37.4829796 C24.485467,38.0820376 22.4511824,38.38545 20.4057551,38.3831633 C18.3697959,38.3831633 16.3346327,38.073551 14.3575714,37.4535306 L13.8410204,37.2919592 L13.6937755,36.7762041 C11.3330816,28.4381633 6.87753061,20.7097959 0.78477551,14.4236327 L0.401142857,14.0256735 L0.519734694,13.4947959 C1.4342449,9.48177551 3.52830612,5.8675102 6.56791837,3.04916327 L6.96667347,2.68065306 L7.49755102,2.81357143 C11.8058571,3.88965306 16.1428163,4.43565306 20.406551,4.43565306 Z" id="Shape" fill="#1B1A2B"></path>
                        <path d="M2.82073469,18.008449 C2.82073469,13.3021837 4.6497551,8.89120408 7.96953061,5.57222449 C11.2893061,2.2532449 15.7002857,0.422632653 20.3922245,0.422632653 C25.0984898,0.422632653 29.5102653,2.25244898 32.8292449,5.57222449 C36.1490204,8.89120408 37.9780408,13.3021837 37.9780408,18.008449 C37.9780408,27.6876122 30.0849184,35.5799388 20.3922245,35.5799388 C15.7002857,35.5799388 11.2893061,33.7501224 7.96953061,30.4311429 C4.6497551,27.1105714 2.82073469,22.7003878 2.82073469,18.008449 Z" id="Shape" fill="#1B1A2B"></path>
                        <path d="M7.40602041,4.39983673 C6.10775916,5.6405286 4.99216442,7.05920708 4.09261224,8.61342857 C3.20084261,10.1551506 2.53528339,11.8170383 2.11634694,13.5481224 C5.15610844,16.7207734 7.80348541,20.2473136 10.0015102,24.0518571 C12.1827199,27.8298754 13.8961858,31.859233 15.1041429,36.0511224 C15.9127959,36.2875102 16.7485102,36.4753469 17.6073061,36.6074694 C18.5194286,36.747551 19.4538367,36.8231633 20.406551,36.8231633 C21.3775714,36.8231633 22.3247143,36.7515306 23.2455918,36.6146327 C24.0730907,36.4911868 24.8913016,36.3119621 25.6946327,36.0781837 C26.9054873,31.8745543 28.6206953,27.8329384 30.8028367,24.0415102 C32.9932934,20.240014 35.6338128,16.7162928 38.6673061,13.5465306 C37.8281958,10.0704287 36.0130552,6.90656649 33.4357347,4.42769388 C29.1721437,5.4771846 24.7974096,6.0079251 20.406551,6.00838776 C18.115102,6.00838776 15.8554898,5.85477551 13.630102,5.56665306 C11.5350252,5.29564706 9.45699719,4.90608324 7.40602041,4.39983673 Z M3.13193878,8.05628571 C4.13692715,6.31966347 5.39653177,4.74348092 6.86877551,3.38026531 L7.09083673,3.17412245 L7.38134694,3.24734694 C9.4848068,3.77970395 11.6178658,4.18739302 13.7693878,4.46828571 C15.9295102,4.74844898 18.1405714,4.8964898 20.406551,4.8964898 C24.8085366,4.89748597 29.1937105,4.35344957 33.462,3.27679592 L33.7533061,3.20277551 L33.9753673,3.40971429 C36.9044902,6.13845376 38.9410448,9.68834521 39.8182041,13.5942857 L39.8842653,13.8863878 L39.6757347,14.1012857 C36.6187248,17.2626018 33.9628981,20.788556 31.7682857,24.599449 C29.5801388,28.3990651 27.8712805,32.4551974 26.6807755,36.6751224 L26.5987959,36.9656327 L26.3090816,37.0555714 C25.3599525,37.3491395 24.38984,37.5699824 23.4071633,37.7161837 C22.4281837,37.8626327 21.4269184,37.9366531 20.406551,37.9366531 C19.3997143,37.9366531 18.4087959,37.8570612 17.4417551,37.7082245 C16.4426953,37.5530647 15.4563125,37.32509 14.4904898,37.0261224 L14.1999796,36.9361837 L14.118,36.6456735 C12.9306752,32.4378968 11.2235379,28.394508 9.03606122,24.609 C6.83348055,20.7948638 4.17054483,17.2658457 1.10712245,14.1012857 L0.900183673,13.8863878 L0.966244898,13.5942857 C1.40284808,11.6490567 2.13311621,9.7816529 3.13193878,8.05628571 Z" id="Shape" fill="#FFFFFF" fill-rule="nonzero"></path>
                        <path d="M3.26644898,18.008449 C3.26046974,13.4633393 5.06550714,9.10312284 8.28232653,5.89218367 C11.489088,2.67263252 15.8473324,0.864766062 20.3914286,0.869142857 C25.125551,0.869142857 29.4107755,2.7865102 32.5124694,5.88820408 C35.6141633,8.98989796 37.5315306,13.2743265 37.5315306,18.008449 C37.5364365,22.5526502 35.7284891,26.9110898 32.5084898,30.117551 C29.297786,33.3353056 24.9370331,35.1407329 20.3914286,35.1342245 C15.8484011,35.1391254 11.4907744,33.333115 8.28312245,30.1159592 C5.06667157,26.9082902 3.26125021,22.550989 3.26644898,18.008449 Z M9.0694898,6.67457143 C6.06174931,9.67881579 4.37449004,13.7573376 4.38073469,18.008449 C4.37548443,22.2559357 6.06350104,26.3303203 9.07108163,29.3295918 C12.0701586,32.3369767 16.1442176,34.0249772 20.3914286,34.0199388 C24.6423339,34.0263235 28.7206599,32.3390268 31.7245102,29.3311837 C34.7336568,26.3321153 36.4226391,22.2569011 36.4172449,18.008449 C36.4232795,13.7568314 34.7344096,9.67816498 31.7245102,6.67536735 C28.7216627,3.66554254 24.6430287,1.97668616 20.3914286,1.98263265 C16.1433494,1.97715147 12.0684445,3.66583793 9.0694898,6.67457143 Z" id="Shape" fill="#FFFFFF" fill-rule="nonzero"></path>
                        <path d="M14.5708776,17.1607959 C15.1017029,17.0519183 15.6521198,17.0890528 16.1635102,17.2682449 C16.6499618,17.4419674 17.0689776,17.7651445 17.3605714,18.1915102 L17.6303878,18.8242653 L16.9992245,18.5926531 C16.0616327,18.0856531 15.1168776,18.3658163 14.1888367,18.642 C13.0092857,18.9922041 11.8520204,19.3360408 10.6454082,18.3156735 C10.4002653,18.1421633 10.198102,17.8795102 10.0381224,17.6112857 C9.9053716,17.3842231 9.78887583,17.1480399 9.6895102,16.9045102 L9.30110204,15.970898 L10.1121429,16.5742041 C10.1169184,16.5781837 11.7923265,17.8667755 14.5557551,17.1623878 L14.5708776,17.1607959 Z" id="Shape" fill="#FFFFFF" fill-rule="nonzero"></path>
                        <path d="M20.0229184,12.5500408 C18.8425714,12.5500408 17.7505714,12.7713061 17.3231633,13.3762041 C17.3231633,13.3762041 16.8503878,13.8187347 16.7620408,14.2023673 C16.7620408,14.2023673 13.7383469,12.1512857 12.7935918,16.6068367 C12.7935918,16.6068367 14.6234082,15.2935714 15.6708367,16.1491837 C15.6708367,16.1491837 16.2017143,16.9021224 17.1759184,17.1520408 C18.5035102,17.5070204 18.3562653,17.7720612 18.4151633,18.0522245 C18.4151633,18.0522245 18.2384694,18.4653061 17.0875714,19.188 C15.9517959,19.9250204 15.3023265,19.5708367 14.254898,19.2325714 C14.254898,19.2325714 14.1816735,20.7814286 16.2614082,20.7519796 C16.2614082,20.7519796 16.6012653,20.7814286 17.013551,20.7376531 C17.013551,20.7376531 14.5199388,21.7834898 15.4646939,24.3519184 C15.4646939,24.3519184 16.3203061,23.3180204 17.2650612,23.0816327 C17.2650612,23.0816327 14.5645102,26.149898 18.1357959,29.1457347 C18.1357959,29.1457347 18.1357959,26.4022041 19.1537755,25.5609184 C19.1537755,25.5609184 19.714102,27.7433265 19.5366122,28.9387959 C19.5366122,28.9387959 19.4920408,29.9862245 19.1673061,30.5322245 C19.1673061,30.5322245 23.4015918,30.4438776 22.1917959,25.3539796 C22.1917959,25.3539796 23.8886939,25.9294286 23.5345102,28.245551 C23.5345102,28.245551 27.3405918,26.3425102 24.8326531,22.4329592 C24.8326531,22.4329592 26.2637143,22.4329592 26.7062449,24.1441837 C26.7062449,24.1441837 28.7422041,21.001102 25.3786531,18.0060612 C25.3786531,18.0060612 26.6473469,17.696449 27.3405918,18.7438776 C27.3405918,18.7438776 27.2522449,16.3537347 24.9950204,15.1885102 C24.4792653,14.907551 25.2903061,14.0813878 25.0833673,13.6245306 L20.0229184,12.5500408 Z" id="Shape" fill="#1B1A2B"></path>
                        <path d="M22.649449,14.3790612 C22.649449,14.3790612 24.0216122,12.6375918 26.071898,12.8739796 C26.071898,12.8739796 25.4972449,15.4416122 23.2392245,15.9135918 L22.649449,14.3790612 Z" id="Shape" fill="#1B1A2B"></path>
                        <path d="M23.3132449,14.6305714 C23.3132449,14.6305714 24.0948367,13.8633061 25.0395918,13.7009388 C25.0395918,13.7009388 24.5676122,14.8080612 23.4907347,15.0285306 L23.3132449,14.6305714 Z M19.2699796,17.1082653 C19.0200612,16.9323673 18.6945306,16.8583469 18.4286939,16.9904694 C19.2405306,17.0199184 19.373449,18.1708163 20.2585102,17.9352245 C20.4208776,17.8906531 20.5681224,17.8174286 20.7010408,17.7282857 C20.1263878,17.9638776 19.6536122,17.433 19.2699796,17.1082653 Z M23.8863061,20.4017755 C23.7852245,19.9258163 23.6228571,19.5668571 23.3952245,19.2843061 C23.1023265,18.9213673 22.7003878,18.6865714 22.1766735,18.495551 C22.2928776,19.0041429 22.4321633,19.5111429 22.4361429,20.036449 C22.4393265,20.5259388 22.3334694,20.9485714 22.1177755,21.2987755 C21.9757638,21.523231 21.7894296,21.716336 21.5701837,21.8662653 C21.7532449,21.3799592 21.7651837,20.9660816 21.7062857,20.6365714 C21.5972449,20.0229184 21.2462449,19.7021633 20.8482857,19.2779388 C20.8315714,19.656 20.8371429,20.0428163 20.7424286,20.4129184 C20.6206531,20.8809184 20.387449,21.1650612 20.1486735,21.3377755 C20.3205918,20.8092857 20.1972245,20.3118367 20.0666939,20.0603265 L19.5652653,20.3261633 C19.5732245,20.3492449 19.7976735,20.8021224 19.5445714,21.3194694 C19.3758367,21.6633061 19.0351837,21.9323265 18.768551,22.1989592 C19.7833469,22.1384694 20.7034286,22.0310204 21.1762041,20.8976327 C21.2231633,21.6561429 20.7591429,22.2626327 20.3468571,22.8484286 C21.2542041,22.6661633 22.015898,22.483102 22.5746327,21.6075918 C22.9232449,21.0679592 23.0497959,20.4121224 22.9725918,19.6337143 C23.4955102,20.3365102 23.4302449,21.2502245 23.4302449,22.0803673 C24.1187143,21.245449 24.6312857,20.4590816 24.6233265,19.2866939 C24.6177551,18.5074898 24.3375918,17.6025306 23.4453673,16.7103061 L23.253551,17.3008776 C24.2595918,18.5775306 24.1417959,19.7053469 23.8863061,20.4017755 Z" id="Shape" fill="#FFFFFF"></path>
                        <path d="M15.8546939,17.7505714 C15.4747418,17.6424153 15.0744922,17.626318 14.6870816,17.7036122 C12.850102,18.1708163 11.4333673,17.8182245 10.6056122,17.4696122 C10.7138571,17.6295918 10.8380204,17.7736531 10.9741224,17.8675714 L10.9876531,17.8771224 L10.9964082,17.8834898 C11.9785714,18.7184082 12.9957551,18.4159592 14.0328367,18.1079388 C14.6297755,17.9320408 15.2330816,17.7529592 15.8546939,17.7505714 Z" id="Shape" fill="#1B1A2B" fill-rule="nonzero"></path>
                        <path d="M20.9812041,11.0155102 C21.3361837,11.6052857 21.9108367,12.3876735 22.6343265,12.3876735 C23.3713469,12.3876735 23.8146735,12.0629388 24.1688571,11.4731633 C23.9619184,11.5026122 23.9038163,11.5026122 23.6968776,11.4437143 C23.2392245,11.280551 23.0179592,10.8236939 23.1063061,10.2339184 C23.2543469,9.71816327 23.770102,9.42208163 24.2723265,9.57012245 C24.4490204,9.62902041 24.5970612,9.71816327 24.7005306,9.83516327 C24.5752608,9.60522143 24.5433381,9.33587418 24.6113878,9.08302041 C24.7586327,8.56726531 25.3635306,8.15338776 25.8952041,8.24173469 L23.8297959,13.3316327 L17.013551,13.3316327 L14.9338163,8.47732653 C15.4503673,8.38897959 16.0552653,8.80206122 16.2025102,9.31861224 C16.2765306,9.56853061 16.2319592,9.76114286 16.1141633,9.96728571 C16.2176327,9.8494898 16.38,9.62822449 16.5423673,9.56932653 C17.0437959,9.42208163 17.6192449,9.86461224 17.7672857,10.3660408 C17.8556327,10.9558163 17.6638163,11.3243265 17.2061633,11.4866939 C16.9992245,11.5320612 16.8225306,11.5018163 16.6163878,11.4723673 C16.9705714,12.0621429 17.501449,12.3868776 18.2392653,12.3868776 C18.9619592,12.3868776 19.4928367,11.6052857 19.8478163,11.0147143 C19.6842968,11.1317287 19.4877564,11.193618 19.2866939,11.1914082 C19.0336271,11.1914373 18.7911281,11.0899366 18.6135345,10.90965 C18.4359409,10.7293633 18.3381012,10.4853642 18.3419388,10.2323265 C18.3419388,9.70065306 18.7558163,9.25812245 19.2866939,9.25812245 C19.4490612,9.25812245 19.626551,9.30269388 19.7586735,9.39104082 C19.573303,9.20751486 19.4672866,8.9586192 19.4633878,8.69779592 C19.4611658,8.17307904 19.882661,7.74483133 20.4073469,7.73871429 C20.9382245,7.73871429 21.3664286,8.16691837 21.3664286,8.69779592 C21.3664286,8.96283673 21.2335102,9.22867347 21.0568163,9.40616327 C21.2048571,9.31781633 21.3664286,9.25812245 21.5431224,9.25812245 C22.0747959,9.25812245 22.4878776,9.70065306 22.4878776,10.2323265 C22.4878776,10.7632041 22.0747959,11.1914082 21.5431224,11.1914082 C21.3361837,11.1922041 20.9812041,11.0155102 20.9812041,11.0155102 Z" id="Shape" fill="#FFFFFF"></path>
                        <path d="M18.7311429,14.6003265 C18.6307739,14.5920191 18.5299012,14.5917529 18.4294898,14.5995306 C18.4208235,14.8762454 18.1905041,15.0941247 17.9137347,15.0874286 C17.6699101,15.0930527 17.4548713,14.9286307 17.3963878,14.6918571 C17.3012416,14.6818267 17.2072026,14.6631787 17.1154286,14.6361429 C17.1806939,14.9401837 17.3510204,15.3007347 17.7863878,15.3827143 C17.7879796,15.3835102 18.4008367,15.5132449 18.6634898,14.7626939 L18.6642857,14.7595102 C18.6841837,14.7006122 18.7064694,14.6480816 18.7311429,14.6003265 Z M17.7481837,13.3332245 C17.6723531,13.3909045 17.605556,13.4595794 17.55,13.5369796 L17.5348776,13.5584694 L17.5149796,13.5775714 C17.5141837,13.5783673 17.257102,13.8203265 17.1154286,14.0686531 C17.257898,14.1450612 17.5539796,14.2318163 18.0689388,14.1028776 L18.0896327,14.098102 C18.7677551,13.9834898 19.1919796,14.1355102 19.3949388,14.2461429 C19.6830612,14.3336939 19.9258163,14.6098776 19.9274082,14.6106735 L19.5270612,14.9736122 C19.5262653,14.9728163 19.2644082,14.6783265 19.1696939,14.9425714 L19.168898,14.9425714 C18.7518367,16.1356531 17.6892857,15.9127959 17.686102,15.912 C16.7389592,15.7337143 16.5662449,14.8255714 16.5391837,14.3894082 C16.1396327,14.1538163 14.1227755,13.1358367 13.2297551,16.0258163 C13.9158367,15.6772041 15.0484286,15.2824286 15.8459388,15.9334898 L15.8769796,15.9597551 L15.8952857,15.9852245 C15.8968776,15.9868163 16.370449,16.6577755 17.2435714,16.8830204 L17.2451633,16.8838163 C18.593449,17.2435714 18.6348367,17.579449 18.6746327,17.9177143 C18.6778163,17.9479592 18.6817959,17.9782041 18.6857755,17.9965102 L18.7040816,18.0816735 L18.6698571,18.1612653 C18.6698571,18.1628571 18.4581429,18.6547347 17.2348163,19.4235918 C16.1579388,20.1216122 15.4893673,19.9409388 14.6090816,19.6456531 C14.7499592,20.0093878 15.1455306,20.4901224 16.2574286,20.4742041 L16.2765306,20.4742041 C16.2773265,20.4742041 16.604449,20.5020612 16.9833061,20.4614694 L18.8123265,20.2656735 L17.1225918,20.9931429 C17.1170204,20.9963265 15.1622449,21.8169184 15.5944286,23.8114898 C15.9517959,23.4644694 16.5503265,22.9749796 17.1966122,22.8134082 L18.0418776,22.6016939 L17.4751837,23.263898 C17.4688163,23.2718571 15.1885102,25.8633673 17.8834898,28.5416327 C17.949551,27.6478163 18.1779796,26.0058367 18.9754898,25.3468163 L19.3121633,25.0682449 L19.422,25.4908776 C19.4235918,25.4972449 19.9902857,27.7043265 19.8151837,28.957102 C19.8112041,29.035102 19.7761837,29.6535306 19.6090408,30.1979388 C20.5983673,30.0069184 22.8110204,29.1592653 21.9219796,25.4176531 L21.8033878,24.9186122 L22.2857143,25.0929184 C22.2904898,25.0945102 23.9062041,25.642898 23.8608367,27.7138776 C24.7315714,27.0811224 26.3990204,25.3913878 24.5986531,22.5857755 L24.3184898,22.1488163 L24.8350408,22.1567755 C24.8398163,22.1567755 26.0941837,22.1567755 26.7404694,23.4421837 C27.124102,22.4584286 27.5451429,20.309449 25.1932041,18.2161837 L24.794449,17.862 L25.3133878,17.7378367 C25.3165714,17.7370408 26.1602449,17.530898 26.9171633,17.9686531 C26.7030612,17.2196939 26.1729796,16.1117755 24.8668776,15.4376327 L24.862102,15.434449 C24.8561752,15.4314334 24.8503361,15.4282484 24.8445918,15.424898 C24.4002784,15.8050187 23.8673036,16.0669893 23.2949388,16.1865918 L23.1819184,15.6413878 C24.4378776,15.3787347 25.4940612,13.8760408 25.7049796,13.1310612 C23.9937551,13.1207143 22.8675306,14.5493878 22.8643469,14.5533673 L22.4313673,14.2047551 C22.4361429,14.1991837 23.8982449,12.343898 26.1021429,12.5977959 L26.4133469,12.6336122 L26.3417143,12.9376531 C26.3409184,12.9424286 26.0870204,14.0750204 25.2584694,15.0173878 C27.5276327,16.2813061 27.6175714,18.7255714 27.6183673,18.7327347 L27.6693061,19.7467347 L27.1081837,18.8990816 C26.8089184,18.447 26.3799184,18.2949796 26.032898,18.2543878 C28.9013878,21.2653469 26.9466122,24.2842653 26.9402449,24.2938163 L26.5972041,24.8382245 L26.4364286,24.2166122 C26.2255102,23.3992041 25.7710408,23.0275102 25.3977551,22.8563878 C27.368449,26.6417755 23.6706122,28.489898 23.6594694,28.4962653 L23.175551,28.7437959 L23.2575306,28.2057551 C23.4509388,26.9418367 22.9861224,26.2613265 22.5881633,25.9190816 C23.390449,30.7240408 19.188,30.8123878 19.1744694,30.8123878 L18.6666735,30.829102 L18.9269388,30.3921429 C19.2150612,29.9074286 19.256449,28.9340204 19.256449,28.9308367 L19.256449,28.9196939 L19.2588367,28.8997959 C19.3750408,28.1182041 19.1553673,26.8789592 19.0065306,26.1713878 C18.4119796,27.1877755 18.4111837,29.1401633 18.4111837,29.1481224 L18.4072041,29.7386939 L17.9543265,29.3590408 C15.3588367,27.183 15.892898,24.9615918 16.4882449,23.7748776 C16.1901295,23.9959484 15.9173339,24.2492586 15.6748163,24.5302041 L15.3667959,24.8955306 L15.2012449,24.4466327 C14.566102,22.7194898 15.346898,21.6203265 16.0473061,21.0281633 C13.8919592,20.9501633 13.9731429,19.2262041 13.9739388,19.2206327 L13.9882653,18.8545102 L14.3368776,18.9675306 C14.4729796,19.012102 14.5692857,19.0447347 14.6632041,19.0765714 C15.4583265,19.3463878 16.0313878,19.5405918 16.9331633,18.9547959 L16.9363469,18.9532041 C17.7601224,18.4358571 18.037102,18.1198776 18.1222653,17.998898 L18.1198776,17.9821837 C18.1023673,17.832551 18.0840612,17.6829184 17.1042857,17.4210612 C16.1491837,17.1751224 15.580898,16.4922245 15.4646939,16.3425918 C14.576449,15.6676531 12.9551633,16.8296939 12.9503878,16.8328776 L12.3717551,17.2395918 L12.519,16.5487347 C13.0578367,14.0033878 14.235,13.4152041 15.2354694,13.4327143 C15.7241633,13.4414694 16.1961429,13.5942857 16.6323061,13.8044082 C16.7312107,13.6372095 16.8449547,13.4792465 16.9721633,13.3324286 L17.7481837,13.3324286 L17.7481837,13.3332245 Z" id="Shape" fill="#FFFFFF" fill-rule="nonzero"></path>
                        <path d="M134.258694,12.070898 L125.702571,12.070898 L121.219163,23.1445102 L121.23349,12.0573673 L115.477408,12.0573673 L115.477408,26.9346735 L125.547367,26.9346735 L126.452327,24.6710816 L133.63549,24.6710816 L134.669388,26.9346735 L140.283,26.9346735 L134.258694,12.070898 Z M108.731204,20.0611224 L102.649592,12.0565714 L95.3526122,12.0565714 L95.3526122,23.1015306 L90.7713061,12.070102 L82.329,12.070102 L78.7927347,20.9095714 L73.5181837,20.9095714 C73.0796327,22.7608776 72.0759796,23.5814694 70.2509388,23.5814694 C68.1584694,23.5814694 66.7441224,22.025449 66.7441224,19.7061429 C66.7441224,16.6943878 67.9316327,15.1383673 70.2087551,15.1383673 C72.0759796,15.1383673 73.1361429,15.9732857 73.4608776,17.7123673 L79.4445918,17.7123673 L79.4589184,17.4855306 C79.4589184,13.893551 75.8247551,11.5328571 70.2947143,11.5328571 C64.3834286,11.5328571 61.5833878,13.8378367 61.1018571,19.1267143 C60.2542041,18.2074286 58.8677143,17.4863265 57.8210816,17.4019592 L55.5861429,17.2037755 L52.2910408,17.1472653 C50.8774898,17.1186122 50.0704286,16.623551 50.0704286,15.7894286 C50.0704286,14.8422857 50.8910204,14.3185714 52.3897347,14.3185714 C54.1144898,14.3185714 54.8077347,14.9545102 54.8077347,16.5240612 L61.1010612,16.5240612 L61.1010612,16.3258776 C61.1010612,13.2576122 58.1314898,11.5599184 52.7439184,11.5599184 C46.7617959,11.5599184 43.8344082,13.2003061 43.8344082,16.5232653 C43.8344082,19.3662857 45.9841837,20.8928571 50.0990816,21.0058776 L52.5457347,21.0631837 C54.3421224,21.118898 55.1483878,21.557449 55.1483878,22.5053878 C55.1483878,23.3108571 54.0165918,24.0741429 52.8434082,24.0741429 C50.7923265,24.0741429 49.7178367,23.3665714 49.7178367,22.0373878 L43.1984694,22.0373878 L43.1984694,22.1790612 C43.1984694,25.4033265 46.4513878,27.1702653 52.3626735,27.1702653 C58.0622449,27.1702653 60.8622857,25.9270408 61.7672449,22.9717959 C63.5914898,26.0822449 65.9673061,27.2140408 70.5915918,27.2140408 C73.5333061,27.2140408 75.0598776,26.8033469 76.9700816,25.4168571 L76.3604082,26.9306939 L81.919102,26.9306939 L82.9370816,24.6113878 L90.2340612,24.6113878 L91.2106531,26.9028367 L100.741776,26.9028367 L100.741776,18.0920204 L107.516633,26.9306939 L114.262041,26.9306939 L114.262041,12.070898 L108.732796,12.070898 L108.732796,20.0611224 L108.731204,20.0611224 Z M127.993224,20.9382245 L129.958347,16.0162653 L132.19249,20.9103673 L127.993224,20.9382245 Z M84.4636531,20.9382245 L86.443898,15.8610612 L88.705898,20.9382245 L84.4636531,20.9382245 Z" id="Shape" fill="#1B1A2B"></path>
                    </g>
                </g>
            </g>
        </g>
    </g>
</svg>