<?xml version="1.0" encoding="UTF-8"?>
<svg width="94px" height="31px" viewBox="0 0 94 31" version="1.1" xmlns="http://www.w3.org/2000/svg" xmlns:xlink="http://www.w3.org/1999/xlink">
    <!-- Generator: sketchtool 49.3 (51167) - http://www.bohemiancoding.com/sketch -->
    <title>AF68642F-260B-431A-8CE8-0897A61A1A1E</title>
    <desc>Created with sketchtool.</desc>
    <defs></defs>
    <g id="Design" stroke="none" stroke-width="1" fill="none" fill-rule="evenodd" opacity="0.699999988">
        <g id="1c-Home-Logo" transform="translate(-969.000000, -71.000000)">
            <g id="Section-1" transform="translate(150.000000, 64.000000)">
                <g id="Line-1" transform="translate(15.000000, 0.000000)">
                    <g id="Sodexo" transform="translate(804.000000, 7.000000)">
                        <path d="M82.3419505,4.04294523 C82.9739079,2.73440251 83.5747374,1.41028191 84.2219505,0.101739196 C84.3914587,1.44143769 84.5763767,2.76555829 84.7612948,4.10525678 C86.0403111,3.66907588 87.288662,3.15500553 88.5829341,2.78113618 C87.6739079,3.90274422 86.7953931,5.05550804 85.9170325,6.20827186 C86.8724423,6.97158844 87.8280062,7.70374925 88.7678521,8.46706583 C87.4888357,8.60726683 86.2099734,8.66957839 84.930803,8.77862362 C84.8845734,10.1494779 84.7921144,11.5359101 84.7150652,12.9223422 C83.9755472,11.9253573 83.2973603,10.8972166 82.588662,9.88465377 C81.5252292,10.8660608 80.4465407,11.8474678 79.4140816,12.8600307 C79.8148915,11.4580206 80.2153931,10.0560106 80.600639,8.6540005 C79.3678521,8.49822161 78.1198095,8.32686482 76.8870226,8.15550804 C78.0888357,7.4700809 79.3062128,6.76907588 80.5083341,6.06807085 C80.0150652,4.86857337 79.5066948,3.68465377 79.0288357,2.48515628 C80.1230882,3.03038241 81.2478521,3.4977191 82.3419505,4.04294523" id="Fill-4" fill="#1B1A2B"></path>
                        <path d="M70.4610285,22.0821101 C73.7125039,19.2780899 76.6403728,16.1002005 79.3987334,12.8132658 C78.1503826,17.159497 75.7311925,21.1630146 72.4643072,24.2474367 C71.6938154,24.8705523 70.9848089,25.6028688 70.1220121,26.1323613 C67.3020121,28.0640196 63.9733334,29.3102508 60.5525039,29.3415623 L60.6295531,29.279095 C63.3262744,27.6901503 65.9151269,25.9298487 68.3344711,23.9358789 C69.0433236,23.3283412 69.7984056,22.7519593 70.4610285,22.0821101" id="Fill-8" fill="#1B1A2B"></path>
                        <path d="M6.43315967,17.689192 C7.85086459,17.2997447 9.33020885,17.1439658 10.7941433,17.1595437 C12.4121761,17.1439658 14.0456187,17.2530111 15.6328318,17.5334131 C15.4016843,18.1565286 15.1705367,18.7640663 14.9702089,19.3871819 C12.6741433,19.2158251 10.3010285,19.0600462 8.02037279,19.5896945 C7.32693016,19.7766291 6.43315967,20.0570312 6.24824164,20.8826593 C6.21742197,21.5057749 6.7875859,21.8640663 7.31152033,22.0198452 C8.94496295,22.471604 10.7016843,22.4092925 12.2426679,23.1414533 C12.9669302,23.4685889 13.5833236,24.1072824 13.7066023,24.9173327 C13.9069302,26.1791417 13.5525039,27.5655739 12.6741433,28.5158251 C11.6725039,29.6062774 10.1931597,30.089192 8.79086459,30.3540161 C5.87840557,30.8213528 2.87348754,30.5721065 0.0380777049,29.8399457 C0.192176066,29.1856744 0.377094098,28.531403 0.531192459,27.8771317 C2.98135639,28.1886894 5.49315967,28.5781367 7.94332361,28.0640663 C8.86791377,27.8615538 9.91578262,27.3630613 10.0852908,26.3193427 C10.2702089,25.6339156 9.66922525,25.0886894 9.08365148,24.9173327 C7.52725803,24.4344181 5.86299574,24.5434633 4.33742197,23.9670814 C3.67479902,23.7178352 3.0275859,23.2660764 2.78102852,22.5806492 C2.31873344,21.3811518 2.75020885,19.9635638 3.67479902,19.1223578 C4.47611049,18.4213528 5.43152033,17.969594 6.43315967,17.689192 Z" id="Stroke-17" fill="#1B1A2B"></path>
                        <path d="M63.572801,17.1595593 C64.5744403,17.1595593 65.5914895,17.1751372 66.5931289,17.1595593 C67.8259157,18.8419714 69.1511616,20.4620719 70.5380469,22.0042829 L70.4609977,22.0821724 C69.7983748,22.7518658 69.0432928,23.3284035 68.3344403,23.9359412 C66.6085387,21.7861925 65.0213256,19.5118206 63.572801,17.1595593" id="Fill-18" fill="#1B1A2B"></path>
                        <path d="M63.572801,17.1595593 C64.5744403,17.1595593 65.5914895,17.1751372 66.5931289,17.1595593 C67.8259157,18.8419714 69.1511616,20.4620719 70.5380469,22.0042829 L70.4609977,22.0821724 C69.7983748,22.7518658 69.0432928,23.3284035 68.3344403,23.9359412 C66.6085387,21.7861925 65.0213256,19.5118206 63.572801,17.1595593 Z" id="Stroke-19"></path>
                        <path d="M46.1134875,11.8162965 C47.1921761,11.7228291 48.2708646,11.6605176 49.3339892,11.5826281 C48.5634974,15.7263467 47.7930056,19.8544874 47.007258,23.9826281 C46.637422,25.8519749 45.7744711,27.7524774 44.2180777,28.9052412 C42.5692252,30.1670503 40.3964384,30.478608 38.3777498,30.3851407 C36.5902089,30.2916734 34.7102089,29.6841357 33.5544711,28.2198141 C32.3679138,26.677603 32.3062744,24.5434322 32.8610285,22.736397 C33.4466023,20.5243367 35.1262744,18.6861457 37.2066023,17.8137839 C39.6875859,16.676598 42.4767662,16.8635327 45.127258,16.9414221 C45.4508646,15.2278543 45.789881,13.5142864 46.1134875,11.8162965 Z M38.7783902,19.8700965 C37.4377344,20.5555236 36.5439639,21.9108 36.1895377,23.3595437 C35.9275705,24.3876844 35.7580623,25.5560261 36.2665869,26.5374332 C36.6826525,27.3942171 37.6380623,27.830398 38.5318328,27.9082874 C39.8108492,28.0640663 41.2439639,27.8615538 42.2301934,26.9424583 C43.0315049,26.2258754 43.4167508,25.151001 43.6016689,24.1072824 C43.9406852,22.471604 44.248882,20.8203477 44.6033082,19.1690915 C42.646259,18.951001 40.5659311,18.9354231 38.7783902,19.8700965 Z" id="Stroke-7" fill="#1B1A2B"></path>
                        <path d="M50.9520836,19.5429452 C52.8320836,17.7047543 55.5288049,16.9414377 58.1022475,17.0037492 C59.4583131,17.034905 60.9378115,17.2529955 62.0009361,18.172091 C63.0643689,19.1067643 63.2029033,20.7735985 62.6173295,22.0042518 C62.0779852,23.0791261 61.0148607,23.7801312 59.9361721,24.2163121 C57.3627295,25.1977191 54.5271656,25.0886739 51.8612639,24.6057593 C51.7071656,26.1012367 52.3545328,27.7057593 53.6951885,28.453498 C55.806182,29.5906839 58.3181393,29.5283724 60.6296148,29.2791261 L60.5525656,29.3414377 C58.5492869,30.7278698 55.9911,31.132895 53.6181393,30.7278698 C52.0615918,30.4786236 50.4897885,29.7620407 49.5189689,28.4690759 C48.7176574,27.4876688 48.3940508,26.1791261 48.5020738,24.9173171 C48.5943787,22.8921915 49.4727393,20.9137995 50.9520836,19.5429452 Z M55.1282416,19.5741322 C53.8492252,20.166092 52.8782515,21.3188558 52.3236515,22.6118206 C54.2651367,22.9389563 56.3302089,23.0947352 58.2410285,22.4560417 C59.0731597,22.1600618 59.9207007,21.3967452 59.7820121,20.4153382 C59.7511925,19.7922226 59.2426679,19.3248859 58.6879138,19.1846849 C57.5012023,18.8731271 56.22234,19.0756397 55.1282416,19.5741322 Z" id="Fill-12" fill="#1B1A2B"></path>
                        <path d="M23.5226525,17.0971854 C25.3256033,16.9102508 27.2826525,17.0504518 28.8852754,18.000703 C30.0718328,18.6861302 30.9347836,19.9323613 31.1197016,21.3189492 C31.366259,23.1725623 30.7960951,25.1042206 29.7636361,26.6308538 C28.2072426,28.9208035 25.5259311,30.260502 22.8292098,30.4941704 C21.0570787,30.6343714 19.1616689,30.4941704 17.5898656,29.5439191 C16.3724885,28.8273362 15.5095377,27.5187935 15.3708492,26.0856276 C15.1705213,24.060502 15.8639639,21.9886427 17.1275705,20.4152759 C18.6993738,18.4836176 21.0878984,17.3464317 23.5226525,17.0971854 Z M23.1990305,19.4183533 C20.517719,20.0414688 18.7609977,22.8454889 18.8688666,25.5248859 C18.8996862,26.1635794 19.1154239,26.8021171 19.5623092,27.2694538 C20.1941125,27.9394588 21.1495223,28.1575492 22.0432928,28.1575492 C23.6767354,28.2198608 25.3255879,27.4252327 26.3272272,26.1168457 C27.0514895,25.1977503 27.4675551,24.0449864 27.6062436,22.8922226 C27.7295223,21.8796598 27.4675551,20.7424739 26.6816534,20.0414688 C25.7262436,19.2469965 24.370178,19.1379513 23.1990305,19.4183533 Z" id="Fill-10" fill="#1B1A2B"></path>
                        <path d="M85.6242148,17.0971854 C87.4733951,16.8323613 89.4460082,16.879095 91.1717557,17.7047231 C92.5432311,18.3278387 93.6219197,19.6363814 93.868477,21.1474367 C94.1922377,23.0012055 93.6528934,24.9484417 92.6512541,26.5218085 C91.2181393,28.7806025 88.6755164,30.1983462 86.0711,30.5720598 C84.2373295,30.8214618 82.2956902,30.7278387 80.6006082,29.9177884 C79.2907721,29.2946729 78.2583131,28.0795975 77.9809361,26.6464317 C77.6266639,24.8861302 78.0733951,23.0479392 78.9365,21.5057281 C80.3233852,19.0755774 82.9120836,17.5022106 85.6242148,17.0971854 Z M85.9017151,19.3871663 C83.081561,20.0102819 81.2323807,23.0168146 81.4790921,25.8364126 C81.5561413,26.755508 82.1569708,27.612292 83.0045118,27.9394276 C84.2372987,28.4379201 85.6550036,28.3600307 86.8725348,27.8615382 C89.0451675,26.9735985 90.3859774,24.5901814 90.3550036,22.2690759 C90.3397479,21.3655583 89.9697577,20.4464628 89.2302397,19.9012367 C88.2902397,19.2002317 87.0110692,19.1379201 85.9017151,19.3871663 Z" id="Fill-14" fill="#1B1A2B"></path>
                        <path d="M70.1219813,26.1323613 C70.9849321,25.6028688 71.6937846,24.8705523 72.4642764,24.2474367 C74.3596862,26.3504518 76.2859157,28.4223111 78.2121452,30.4941704 C76.8714895,30.4630146 75.5154239,30.509904 74.1747682,30.4785925 C73.820342,30.260502 73.5891944,29.9333663 73.2964075,29.6531201 C72.1868993,28.5157784 71.1082108,27.3630146 70.1219813,26.1323613" id="Fill-28" fill="#1B1A2B"></path>
                    </g>
                </g>
            </g>
        </g>
    </g>
</svg>