<?xml version="1.0" encoding="UTF-8"?>
<svg width="51px" height="57px" viewBox="0 0 51 57" version="1.1" xmlns="http://www.w3.org/2000/svg" xmlns:xlink="http://www.w3.org/1999/xlink">
    <!-- Generator: sketchtool 49.3 (51167) - http://www.bohemiancoding.com/sketch -->
    <title>F628702D-9026-4F54-A5DC-CCAD35DC4652</title>
    <desc>Created with sketchtool.</desc>
    <defs></defs>
    <g id="Design" stroke="none" stroke-width="1" fill="none" fill-rule="evenodd" opacity="0.699999988">
        <g id="1c-Home-Logo" transform="translate(-994.000000, -583.000000)" fill="#1B1A2B" fill-rule="nonzero">
            <g id="Section-1" transform="translate(150.000000, 64.000000)">
                <g id="ligne-4" transform="translate(2.000000, 519.000000)">
                    <g id="veon-seeklogo.com" transform="translate(842.000000, 0.000000)">
                        <polygon id="Shape" points="0.0217686703 0.0287941712 12.6617523 0.0287941712 25.3017359 22.1253789 37.3799563 0.0287941712 50.1135902 0.0287941712 25.0676448 43.941082"></polygon>
                        <g id="Group" transform="translate(11.766849, 50.043716)">
                            <polyline id="Shape" points="8.10043716 0.249976321 8.53975592 0.311440801 4.30251366 6.91451184 0.00297632058 0.228588342 0.521132969 0.243435337 4.35273042 6.17119308"></polyline>
                            <polygon id="Shape" points="9.79129872 0.429351548 9.79129872 2.86117851 12.7407286 2.86117851 12.7407286 3.26059381 9.79129872 3.26059381 9.79129872 6.32257013 12.8183206 6.32257013 12.8183206 6.72198543 9.32560838 6.72198543 9.32560838 0.0299362477 12.8183206 0.0299362477 12.8183206 0.429351548"></polygon>
                            <path d="M20.4327177,3.48630965 C20.4327177,5.30584517 18.8963479,6.80784882 17.076847,6.80784882 C15.2573115,6.80784882 13.7210109,5.30587978 13.7210109,3.48630965 C13.7210109,1.66673953 15.248694,0.164770492 17.076847,0.164770492 C18.8963825,0.1648051 20.4327177,1.66673953 20.4327177,3.48630965 Z M14.1329891,3.48630965 C14.1329891,5.08269035 15.4633352,6.4215847 17.076847,6.4215847 C18.6818106,6.4215847 20.0207049,5.07407286 20.0207049,3.48630965 C20.0207049,1.88992896 18.681776,0.551 17.076847,0.551 C15.4633352,0.551 14.1329891,1.88992896 14.1329891,3.48630965 Z" id="Shape"></path>
                            <polygon id="Shape" points="26.5986503 6.93655738 22.1372842 1.16041894 22.1372842 6.72202004 21.7989872 6.72202004 21.7989872 0.1648051 26.2603534 5.89806375 26.2603534 0.250599271 26.5986503 0.250599271"></polygon>
                        </g>
                    </g>
                </g>
            </g>
        </g>
    </g>
</svg>