<svg version="1" xmlns="http://www.w3.org/2000/svg" width="917.333" height="917.333" viewBox="0 0 688.000000 688.000000"><path d="M349 1.4c-7.2 2.7-8.6 3.5-11.6 6.8-5.4 5.7-7.9 11.8-8.9 22.2-.3 2.7-.8 5.2-1.1 5.7-.3.5-.2.9.3.9.4 0 .8 2.1.7 4.7 0 2.7.6 8.6 1.3 13.3 1.8 11.2 1.8 11.3 4.2 20 1.2 4.1 2.3 8.2 2.5 9 .5 1.9 6.4 18.8 7.5 21.5 2.2 5.4 3.1 7.4 5 11.7 1.2 2.6 2.1 5 2.1 5.2 0 .5 12.6 26.3 14 28.6.5.8 3.7 6.2 7.1 12 9.7 16.4 17.9 26.4 22.7 27.7 4.8 1.3 14.7.8 23.8-1.1 1.2-.2 4.5-.7 7.5-1.1 3-.3 6.5-.8 7.9-1 1.4-.2 5-.6 8-1 3-.3 7.1-.8 9.1-1.1 2-.2 5.6-.7 8-.9 9.5-1 16.6-1.7 19.9-2 6.7-.6 16.5-1.5 21-2 6.6-.7 15.6-1.4 23-2 3.6-.3 9.7-.8 13.5-1.1 12.2-1 27.2-2 43-3 5.5-.3 22.8-.8 38.5-1.1 15.7-.2 28.9-.8 29.3-1.2 1-1-10.5-11.7-26.2-24.2-6.9-5.6-13.8-11.1-15.3-12.2-1.4-1.2-3.6-2.9-4.8-3.7-1.2-.8-8-5.9-15-11.3-7.1-5.3-13.4-9.7-13.9-9.7s-1.1-.4-1.3-.8c-.1-.4-5-4.1-10.8-8.2-5.8-4-14.2-10-18.7-13.2-4.5-3.2-8.6-5.8-9.1-5.8-.6 0-1.2-.3-1.4-.8-.4-1-9.7-7.2-10.7-7.2-.5 0-1.1-.3-1.3-.8-.4-1-22.7-15.2-23.8-15.2-.6 0-1-.3-1-.8 0-.4-.9-1.2-1.9-1.7-1.1-.6-9.8-5.5-19.3-11.1s-22.9-13-29.8-16.5c-6.9-3.5-12.6-6.7-12.8-7.2-.2-.4-.9-.7-1.6-.7-.7 0-4.4-1.5-8.2-3.4-3.8-1.8-8-3.7-9.4-4.1-1.4-.4-4.3-1.5-6.5-2.5-7.4-3.3-23.7-8.3-30.5-9.5-7.7-1.3-21.5-1.4-25-.1zM655 191.8c0 .4-2.8.7-6.3.8-6.2.1-25 1.2-31.7 1.8-1.9.2-7.5.7-12.5 1.1-9.5.7-13 1-23.5 1.9-10.2.9-17 1.5-23 2-3 .3-7.1.7-9 1-1.9.3-6.9.8-11 1.1-4.1.4-9.1.8-11 1-1.9.2-6.9.7-11 1-4.1.4-8.6.9-10 1-1.4.2-5.4.6-9 .9-3.6.3-8.4.8-10.8 1.1-5.7.6-14 1.4-20.9 2-3.2.3-7.4.7-9.3 1-3.6.4-13.7 1.5-19.9 2-7.6.7-15.7 1.6-18.1 2-1.4.2-5.9.7-10 1-4.1.4-8.8.8-10.5 1.1-1.6.2-5.5.6-8.5.9-3 .3-6.8.8-8.5 1-1.6.2-5.7.6-9 1-3.3.3-7.3.8-9 1-1.6.3-5.5.7-8.5 1-8.6.8-15.3 1.5-18 2-1.4.3-5.4.7-9 1-3.6.3-7.5.7-8.7.9-1.2.3-5 .7-8.5 1-3.4.3-7.4.8-8.8 1-1.4.3-5.2.8-8.5 1.1-3.3.4-7.3.8-9 1-1.6.2-5 .6-7.5.9-9.9 1.2-20.1 2.5-25 3.3-1.9.3-4.2.6-5 .5-1.4 0-13.5 1.5-19 2.3-1.4.2-5.2.7-8.5 1-3.3.4-6.7.8-7.5 1-.8.2-3.7.6-6.5 1-2.7.3-6.6.8-8.5 1-1.9.3-5.5.8-8 1.1-2.5.3-5.6.7-7 .9-1.4.3-5 .7-8 1-3 .4-6.2.8-7 1-.8.2-3.7.7-6.5 1-2.7.4-6.1.8-7.5 1.1-1.4.2-4.5.6-7 1-2.5.3-5.6.8-7 1-1.4.3-4.1.7-6 .9-4.2.4-9.8 1.3-12.5 1.8-1.1.3-4.5.8-7.5 1.3-3 .4-5.7.8-6 .9-.3 0-2.6.4-5.1.8-5.2.9-7.8 1.3-13.4 2.2-2.2.4-4.7.8-5.5 1-1.7.2-5.1.9-19.1 3.6-14.5 2.8-31.3 7.4-35 9.6-3 1.7-3.4 2.4-3.2 5.7.5 8.3 12.2 24.3 26.4 36.1 6.2 5 17.9 13.5 18.8 13.5.6 0 1.1.4 1.1.8 0 .5 1.2 1.5 2.7 2.3 1.6.8 3 1.6 3.3 2 2.1 2.3 37.1 20 46.5 23.4 2.8 1 5.9 2.5 7 3.2 1.1.7 2.5 1.3 3.2 1.3.6 0 2.4.5 4 1.2 1.5.6 3.3 1.2 3.8 1.4.6.1 6.3 2.1 12.9 4.3 6.5 2.3 12.7 4.1 13.7 4.1s2.1.5 2.4 1.1c.4.5 1.2.8 1.8.6.7-.2 2.7.2 4.5.9 1.8.7 3.6 1.3 4 1.3.4-.1.9 0 1.2.1 1.7.6 11.7 3 15.4 3.5 1.6.3 4.5.9 6.5 1.5 2 .5 5.4 1.2 7.6 1.4 2.2.3 5 .8 6.2 1 1.2.3 5 .7 8.5 1.1 3.5.3 7.9.8 9.8 1 2.8.4 25 1.6 29.5 1.6 5.4 0 29.6-1.1 35.5-1.6 10.1-.9 14.5-1.4 14.5-1.5 0-.1 1.4-.3 3-.5 1.7-.2 5-.7 7.5-1.1 2.5-.3 5.6-.7 7-.9 2-.2 11.1-2 25-5 .8-.2 6-1.5 11.5-2.9 5.5-1.5 10.9-2.9 11.9-3.1 4-.9 22.2-6.6 24.1-7.6 1.1-.5 3.4-1.3 5-1.8 1.7-.5 6.2-2.1 10-3.6 3.9-1.4 9-3.4 11.5-4.2 2.5-.9 4.7-1.9 5-2.3.3-.4 1.6-1.1 3-1.5 7.3-2.1 42.9-19.4 59.3-28.6 3.8-2.2 7.1-3.9 7.3-3.9.2 0 4.1-2.3 8.7-5 4.5-2.8 8.9-5.5 9.7-6 2.2-1.3 17.9-11.2 20.9-13.2 1.4-1 3.6-2.3 4.9-2.9 1.2-.7 2.2-1.6 2.2-2.1 0-.4.5-.8 1.1-.8.5 0 5.1-2.9 10.2-6.4 5.1-3.6 10.7-7.5 12.5-8.8 1.8-1.3 3.9-2.9 4.7-3.6.7-.6 1.8-1.2 2.3-1.2.6 0 1.2-.4 1.4-.8.2-.5 3-2.8 6.3-5.2 3.3-2.4 6.2-4.6 6.5-5 .3-.3 2.1-1.7 4-3s3.7-2.7 4-3c.3-.3 5.9-4.8 12.5-10.1 13.3-10.7 14.3-11.5 23.4-19.7 12.8-11.5 20.8-20.1 21.3-22.8.2-1.4-.4-1.9-2.6-2.1-1.6-.1-3.5-.4-4.3-.7-.7-.3-1.3-.2-1.3.2zM608.5 274.1c-4.1 2-21.8 13.4-24.5 15.7-.8.7-4.9 3.8-9 6.7-4.1 3-8.4 6.1-9.5 6.9-5.1 3.7-16.2 11.9-18.5 13.6-25.5 19-48.4 34.6-66.5 45.2-5.5 3.2-10.7 6.2-11.5 6.8-3 1.9-13.7 7.9-21 11.8-4.1 2.1-9.2 4.9-11.2 6-7.7 4.3-26.3 13.6-27 13.5-.3-.2-1.2.4-1.8 1.2-.7.8-1.7 1.5-2.2 1.5-.5 0-4.8 1.8-9.6 4.1-17.3 8.2-32.7 15-49.7 21.9-7.1 2.9-14.9 6.1-17.2 7.1-2.4 1.1-4.6 1.9-5.1 1.9-.4 0-4.6 1.5-9.2 3.4-10 3.9-12.2 4.8-13.5 5.2-.5.2-17.2 5.8-37 12.4-19.8 6.6-39.8 13.1-44.5 14.5l-8.5 2.5-1.7 4.7c-7 20-14.9 42.8-14.8 42.8.1 0-.6 2.7-1.6 6-1.9 6.4-2 6.9-2.7 10-.3 1.1-1 4-1.7 6.5s-1.4 5.2-1.6 6c-.2.8-1.5 6.4-2.9 12.5-2.8 11.7-2.8 11.9-4 18-.5 2.2-.9 4.4-1 5-.2.5-.5 2.6-.9 4.5-.3 1.9-.8 4.6-1.1 6-.3 1.4-.8 4.1-1.1 6-1 6.9-1.3 8.5-1.8 11.6-.6 3.4-1.2 7.7-2.2 16.4-.3 3-.7 6.6-.9 8-.3 2.3-.6 5.7-2.1 20.6-.2 2.8-.6 9-.9 13.7-.2 4.8-.6 9.1-1 9.7-.3.5-.1 1 .5 1s.8.5.5 1c-1.2 2 1.7.9 4.1-1.5 1.4-1.4 2.9-2.5 3.4-2.5.6 0 1-.5 1-1 0-.6.4-1 1-1 .5 0 2-.9 3.2-1.9 7.6-6.3 13.9-11.1 14.7-11.1.5 0 1.1-.4 1.3-.8.2-.5 9.5-8.3 20.8-17.4 25.4-20.3 24.9-20 27-21.9.9-.8 2.5-2.2 3.6-3 1.2-.8 4.3-3.3 7-5.6s8.2-6.8 12.1-10.1c4-3.3 7.9-6.6 8.6-7.4.8-.7 4.2-3.6 7.6-6.3 3.3-2.8 6.1-5.3 6.1-5.8 0-.4.5-.7 1-.7s1.8-.8 2.8-1.7c1-1 3.2-2.9 4.8-4.2 4.9-4 15.8-13.4 17.5-15.1.9-.8 3.8-3.3 6.4-5.5 2.7-2.2 5.8-4.9 7.1-6 1.2-1.1 3.5-3.1 5.1-4.5 9.8-8.5 17.9-15.6 18.9-16.5.6-.6 4.2-3.8 8-7.1 7.7-6.9 9.1-8.2 19-17.1 3.8-3.4 7.9-7 9-8 1.2-1 6.3-5.6 11.4-10.3 5.1-4.7 10.2-9.3 11.4-10.3 1.1-1 6.8-6.3 12.6-11.6 5.8-5.4 11.9-11 13.5-12.5 4.5-4.1 25.3-23.6 29.5-27.6 2-1.9 11.3-10.7 20.6-19.5 20.8-19.7 70.2-69 84.6-84.5 15.7-16.8 16.8-18.1 22.3-24.5 2.8-3.2 5.5-6.3 6-6.9 2.6-2.7 11.7-15 13.1-17.7 2.6-5.1.5-6.1-6.1-2.8z"/></svg>