<?xml version="1.0" encoding="UTF-8"?> <svg xmlns="http://www.w3.org/2000/svg" width="44" height="44" viewBox="0 0 44 44" fill="none"><path fill-rule="evenodd" clip-rule="evenodd" d="M22 44C9.84977 44 0 34.1502 0 22C0 15.54 6.98491 14.013 11.419 9.98818C15.3247 6.44303 16.3098 0 22 0C34.1502 0 44 9.84977 44 22C44 34.1502 34.1502 44 22 44Z" fill="#D0ECEA"></path><mask id="mask0" maskUnits="userSpaceOnUse" x="0" y="0" width="44" height="44"><path fill-rule="evenodd" clip-rule="evenodd" d="M22 44C9.84977 44 0 34.1502 0 22C0 15.54 6.98491 14.013 11.419 9.98818C15.3247 6.44303 16.3098 0 22 0C34.1502 0 44 9.84977 44 22C44 34.1502 34.1502 44 22 44Z" fill="white"></path></mask><g mask="url(#mask0)"><path d="M19.1017 18.7969C11.3135 18.7969 5 25.1104 5 32.8986C5 40.6867 11.3135 47.0003 19.1017 47.0003C26.8899 47.0003 33.2034 40.6867 33.2034 32.8986H20.1883C19.5882 32.8986 19.1017 32.413 19.1017 31.812V18.7969Z" fill="#46D2CA"></path><path d="M37.0002 30.1864H22.8939C22.2973 30.1864 21.8137 29.6995 21.8137 29.1063V15C30.201 15 37.0002 21.7992 37.0002 30.1864Z" fill="#2C275F"></path></g></svg> 