<?xml version="1.0" encoding="UTF-8"?> <svg xmlns="http://www.w3.org/2000/svg" width="50" height="45" viewBox="0 0 50 45" fill="none"><path opacity="0.2" fill-rule="evenodd" clip-rule="evenodd" d="M35.341 43.2747C47.5275 40.0093 51.2861 26.5856 47.9852 14.2663C46.2301 7.71645 40.5831 4.99035 35.2332 3.28575C29.9889 1.61484 15.4007 -1.07551 9.69347 0.453717C-2.49307 3.71905 -0.939682 16.4186 2.3317 29.3371C5.60307 42.2555 23.1545 46.5401 35.341 43.2747Z" fill="#45D2CA"></path><mask id="mask0" maskUnits="userSpaceOnUse" x="0" y="0" width="50" height="45"><path fill-rule="evenodd" clip-rule="evenodd" d="M35.341 43.2747C47.5275 40.0093 51.2861 26.5856 47.9852 14.2663C46.2301 7.71645 40.5831 4.99035 35.2332 3.28575C29.9889 1.61484 15.4007 -1.07551 9.69347 0.453717C-2.49307 3.71905 -0.939682 16.4186 2.3317 29.3371C5.60307 42.2555 23.1545 46.5401 35.341 43.2747Z" fill="white"></path></mask><g mask="url(#mask0)"><path d="M24.0972 30.1618C28.5512 30.1618 32.1619 26.551 32.1619 22.097C32.1619 17.6429 28.5512 14.0322 24.0972 14.0322C19.6431 14.0322 16.0324 17.6429 16.0324 22.097C16.0324 26.551 19.6431 30.1618 24.0972 30.1618Z" fill="#46D2CA"></path><path d="M27.3231 23.2664C27.3231 24.5888 26.4499 25.6015 24.6793 25.7802V26.3878C24.6793 26.6857 24.4246 26.9359 24.1214 26.9359C23.7818 26.9359 23.5272 26.6857 23.5272 26.3878V25.7921C22.557 25.7087 21.3685 25.3394 20.9925 24.7556C20.9198 24.6365 20.8712 24.5173 20.8712 24.3744C20.8712 23.9336 21.2472 23.5881 21.6717 23.5881C21.8414 23.5881 21.9991 23.6357 22.1446 23.731C22.5327 23.9931 22.9936 24.1957 23.5272 24.291V22.4086C22.278 22.0988 20.9198 21.6461 20.9198 20.0258C20.9198 18.8225 21.89 17.7979 23.5272 17.6311V16.9997C23.5272 16.7019 23.7818 16.4517 24.1214 16.4517C24.4246 16.4517 24.6793 16.7019 24.6793 16.9997V17.655C25.3948 17.7384 26.4256 18.0124 26.7773 18.5247C26.8501 18.6319 26.8986 18.7629 26.8986 18.894C26.8986 19.3467 26.462 19.6684 26.0375 19.6684C25.9648 19.6684 25.892 19.6565 25.8071 19.6327C25.4554 19.5374 25.0552 19.2633 24.6793 19.1799V20.8598C25.9284 21.1695 27.3231 21.6461 27.3231 23.2664ZM23.5272 20.5619V19.1085C22.9814 19.1799 22.6782 19.4778 22.6782 19.8829C22.6782 20.2284 23.0178 20.419 23.5272 20.5619ZM25.5767 23.457C25.5767 23.0639 25.2008 22.8613 24.6793 22.6945V24.291C25.2735 24.1718 25.5767 23.8263 25.5767 23.457Z" fill="#2C295D"></path><path fill-rule="evenodd" clip-rule="evenodd" d="M35.2 22C35.2 28.1856 30.1856 33.2 24 33.2C17.8144 33.2 12.8 28.1856 12.8 22C12.8 15.8144 17.8144 10.8 24 10.8C30.1856 10.8 35.2 15.8144 35.2 22ZM32.6164 33.0352C30.2406 34.8929 27.2496 36 24 36C16.268 36 10 29.732 10 22C10 14.268 16.268 8 24 8C31.732 8 38 14.268 38 22C38 25.3201 36.8443 28.3702 34.9133 30.7701L43.1916 39.0484C43.9834 39.8402 44.1147 40.9928 43.4848 41.6227C42.8549 42.2526 41.7024 42.1213 40.9105 41.3294L32.6261 33.0451C32.6229 33.0418 32.6196 33.0385 32.6164 33.0352Z" fill="#2C295D"></path></g></svg> 