<?xml version="1.0" encoding="UTF-8"?> <svg xmlns="http://www.w3.org/2000/svg" width="47" height="43" viewBox="0 0 47 43" fill="none"><path opacity="0.2" fill-rule="evenodd" clip-rule="evenodd" d="M23.5 41.614C39.4853 47.6392 47 32.6098 47 23.6009C47 14.5921 39.5389 15.0327 34.8024 10.715C30.6304 6.91189 29.5782 0 23.5 0C10.5213 0 0 10.5665 0 23.6009C0 36.6354 7.51471 35.5888 23.5 41.614Z" fill="#45D2CA"></path><mask id="mask0" maskUnits="userSpaceOnUse" x="0" y="0" width="47" height="43"><path fill-rule="evenodd" clip-rule="evenodd" d="M23.5 41.614C39.4853 47.6392 47 32.6098 47 23.6009C47 14.5921 39.5389 15.0327 34.8024 10.715C30.6304 6.91189 29.5782 0 23.5 0C10.5213 0 0 10.5665 0 23.6009C0 36.6354 7.51471 35.5888 23.5 41.614Z" fill="white"></path></mask><g mask="url(#mask0)"><path d="M36.1562 36.1444C35.4479 32.6348 32.2917 30 28.5 30C25.4896 30 22.875 31.6684 21.5729 34.1098C18.4375 34.4354 16 37.3912 16 40.5346C16 43.9018 18.8021 47 22.25 47H35.7917C38.6667 47 41 44.3596 41 41.5519C41 38.8662 38.8646 36.3275 36.1562 36.1444Z" fill="#46D2CA"></path><path d="M8 28.1305V16H10.4003L15.6367 23.8897V16H18.2038V28.1305H15.8036L10.5671 20.2193V28.1251H8V28.1305Z" fill="#2C275F"></path><path d="M20.744 28.1305V16H28.6337V18.2011H23.3434V20.9028H28.1493V23.1039H23.3434V25.924H28.8005V28.1251H20.744V28.1305Z" fill="#2C275F"></path><path d="M33.811 28.1305V18.2011H30.2213V16H40V18.2011H36.4103V28.1305H33.811Z" fill="#2C275F"></path></g></svg> 