<?xml version="1.0" encoding="UTF-8"?> <svg xmlns="http://www.w3.org/2000/svg" width="32" height="32" viewBox="0 0 32 32" fill="none"><path d="M16 32C24.8366 32 32 24.8366 32 16C32 7.16344 24.8366 0 16 0C7.16344 0 0 7.16344 0 16C0 24.8366 7.16344 32 16 32Z" fill="#B9B6F1"></path><path d="M16.96 13.1219V10.8811C16.96 10.3547 16.5302 9.92188 16 9.92188C15.4709 9.92188 15.04 10.3513 15.04 10.8811V13.1219H10.7721C9.22725 13.1219 8 14.423 8 16.002V24.3218H9.92V16.002C9.92 15.4591 10.3135 15.0419 10.7721 15.0419H15.04V21.1226C15.04 21.6491 15.4698 22.0819 16 22.0819C16.5291 22.0819 16.96 21.6524 16.96 21.1226V15.0419H21.2279C21.6856 15.0419 22.08 15.4598 22.08 16.002V24.3218H24V16.002C24 14.4236 22.7717 13.1219 21.2279 13.1219H16.96Z" fill="#8282DC"></path><path d="M16.0002 10.8811C14.4096 10.8811 13.1202 9.59167 13.1202 8.00109C13.1202 6.41051 14.4096 5.12109 16.0002 5.12109C17.5908 5.12109 18.8802 6.41051 18.8802 8.00109C18.8802 9.59167 17.5908 10.8811 16.0002 10.8811ZM16.0002 24.6411C14.7631 24.6411 13.7602 23.6382 13.7602 22.4011C13.7602 21.164 14.7631 20.1611 16.0002 20.1611C17.2373 20.1611 18.2402 21.164 18.2402 22.4011C18.2402 23.6382 17.2373 24.6411 16.0002 24.6411ZM8.96022 24.6411C7.7231 24.6411 6.72021 23.6382 6.72021 22.4011C6.72021 21.164 7.7231 20.1611 8.96022 20.1611C10.1973 20.1611 11.2002 21.164 11.2002 22.4011C11.2002 23.6382 10.1973 24.6411 8.96022 24.6411ZM23.0402 24.6411C21.8031 24.6411 20.8002 23.6382 20.8002 22.4011C20.8002 21.164 21.8031 20.1611 23.0402 20.1611C24.2773 20.1611 25.2802 21.164 25.2802 22.4011C25.2802 23.6382 24.2773 24.6411 23.0402 24.6411Z" fill="#5745B1"></path></svg> 