<?xml version="1.0" encoding="UTF-8"?> <svg xmlns="http://www.w3.org/2000/svg" width="32" height="32" viewBox="0 0 32 32" fill="none"><g clip-path="url(#clip0)"><path d="M16 31.9995C24.8366 31.9995 32 24.8361 32 15.9995C32 7.16296 24.8366 -0.000488281 16 -0.000488281C7.16344 -0.000488281 0 7.16296 0 15.9995C0 24.8361 7.16344 31.9995 16 31.9995Z" fill="#EDEBFF"></path><path d="M11.2 15.3596H8.64C8.28654 15.3596 8 15.6462 8 15.9996V23.0396C8 23.3931 8.28654 23.6796 8.64 23.6796H11.2C11.5535 23.6796 11.84 23.3931 11.84 23.0396V15.9996C11.84 15.6462 11.5535 15.3596 11.2 15.3596Z" fill="#8282DC"></path><path d="M16.96 10.5596H14.4C14.0465 10.5596 13.76 10.8461 13.76 11.1996V23.0396C13.76 23.393 14.0465 23.6796 14.4 23.6796H16.96C17.3135 23.6796 17.6 23.393 17.6 23.0396V11.1996C17.6 10.8461 17.3135 10.5596 16.96 10.5596Z" fill="#5745B1"></path><path d="M22.72 8.6394H20.16C19.8065 8.6394 19.52 8.92594 19.52 9.2794V23.0394C19.52 23.3929 19.8065 23.6794 20.16 23.6794H22.72C23.0735 23.6794 23.36 23.3929 23.36 23.0394V9.2794C23.36 8.92594 23.0735 8.6394 22.72 8.6394Z" fill="#5745B1"></path></g><defs><clipPath id="clip0"><rect y="-0.000488281" width="32" height="32" fill="white"></rect></clipPath></defs></svg> 