<?xml version="1.0" encoding="UTF-8"?> <svg xmlns="http://www.w3.org/2000/svg" width="32" height="32" viewBox="0 0 32 32" fill="none"><path d="M16 31.4386C24.8366 31.4386 32 24.4008 32 15.7193C32 7.03777 24.8366 0 16 0C7.16344 0 0 7.03777 0 15.7193C0 24.4008 7.16344 31.4386 16 31.4386Z" fill="#B9B6F1"></path><path d="M14.0398 9.9032V12.1039C14.0398 12.3639 14.2547 12.5755 14.5181 12.5755H18.0415C18.3049 12.5755 18.5198 12.3641 18.5198 12.1039V9.9032C18.5198 9.64314 18.3049 9.43161 18.0415 9.43161H14.5181C14.2548 9.43161 14.0398 9.64296 14.0398 9.9032ZM12.4398 9.9032C12.4398 8.77507 13.3709 7.85968 14.5181 7.85968H18.0415C19.1893 7.85968 20.1198 8.77567 20.1198 9.9032V12.1039C20.1198 13.232 19.1888 14.1474 18.0415 14.1474H14.5181C13.3704 14.1474 12.4398 13.2314 12.4398 12.1039V9.9032Z" fill="#5745B1"></path><path d="M24.277 23.8952C24.9842 23.8952 25.56 23.3322 25.56 22.6377V12.5773C25.56 11.8845 24.9856 11.3198 24.277 11.3198H8.28303C7.57582 11.3198 7 11.8828 7 12.5773V22.6377C7 23.3304 7.57443 23.8952 8.28303 23.8952H24.277Z" fill="#8282DC"></path><path d="M9.55981 11.3167H11.4798V23.8922H9.55981V11.3167ZM21.0798 11.3167H22.9998V23.8922H21.0798V11.3167Z" fill="#5745B1"></path></svg> 