<?xml version="1.0" encoding="UTF-8"?> <svg xmlns="http://www.w3.org/2000/svg" width="32" height="32" viewBox="0 0 32 32" fill="none"><path d="M16 32C24.8366 32 32 24.8366 32 16C32 7.16344 24.8366 0 16 0C7.16344 0 0 7.16344 0 16C0 24.8366 7.16344 32 16 32Z" fill="#EDEBFF"></path><path d="M16.0001 25.9181C21.4787 25.9181 25.9201 21.4768 25.9201 15.9981C25.9201 10.5195 21.4787 6.07812 16.0001 6.07812C10.5214 6.07812 6.08008 10.5195 6.08008 15.9981C6.08008 21.4768 10.5214 25.9181 16.0001 25.9181Z" fill="#8282DC"></path><path d="M9.01131 24.0111C8.84651 24.5142 9.0878 24.7102 9.54883 24.4497L18.0986 19.6184C18.8298 19.2052 19.6489 18.2301 19.9295 17.4365L23.2027 8.17759C23.3795 7.67764 23.146 7.47385 22.6775 7.72439L13.9192 12.4083C13.1779 12.8047 12.3651 13.7729 12.1032 14.5725L9.01131 24.0111Z" fill="#5745B1"></path><path d="M15.9999 17.5984C16.8836 17.5984 17.5999 16.8821 17.5999 15.9984C17.5999 15.1148 16.8836 14.3984 15.9999 14.3984C15.1162 14.3984 14.3999 15.1148 14.3999 15.9984C14.3999 16.8821 15.1162 17.5984 15.9999 17.5984Z" fill="#B6CCF9"></path></svg> 