<?xml version="1.0" encoding="UTF-8"?> <svg xmlns="http://www.w3.org/2000/svg" width="32" height="32" viewBox="0 0 32 32" fill="none"><g clip-path="url(#clip0)"><path d="M16 31.9995C24.8366 31.9995 32 24.8361 32 15.9995C32 7.16296 24.8366 -0.000488281 16 -0.000488281C7.16344 -0.000488281 0 7.16296 0 15.9995C0 24.8361 7.16344 31.9995 16 31.9995Z" fill="#EDEBFF"></path><path d="M7.67999 23.0368C7.67999 23.7462 8.25307 24.3194 8.96 24.3194H19.2C19.9051 24.3194 20.48 23.7452 20.48 23.0368V12.162C20.48 11.4526 19.9069 10.8794 19.2 10.8794H8.96C8.25485 10.8794 7.67999 11.4536 7.67999 12.162V23.0368Z" fill="#5745B1"></path><path d="M24.32 8.96204C24.32 8.25264 23.7469 7.67944 23.04 7.67944H12.8C12.0948 7.67944 11.52 8.25368 11.52 8.96204V19.8368C11.52 20.5462 12.0931 21.1194 12.8 21.1194H23.04C23.7451 21.1194 24.32 20.5452 24.32 19.8368V8.96204Z" fill="#8282DC"></path><path d="M14 10.64C14 10.2865 14.2885 10 14.6403 10H20.7197C21.0733 10 21.36 10.2841 21.36 10.64C21.36 10.9935 21.0715 11.28 20.7197 11.28H14.6403C14.2867 11.28 14 10.9959 14 10.64ZM14 13.2C14 12.8465 14.2848 12.56 14.64 12.56H18.8C19.1534 12.56 19.44 12.8441 19.44 13.2C19.44 13.5535 19.1552 13.84 18.8 13.84H14.64C14.2866 13.84 14 13.5559 14 13.2ZM14 15.76C14 15.4065 14.2856 15.12 14.6384 15.12H19.1216C19.4742 15.12 19.76 15.4041 19.76 15.76C19.76 16.1135 19.4744 16.4 19.1216 16.4H14.6384C14.2858 16.4 14 16.1159 14 15.76Z" fill="#E3F1FF"></path></g><defs><clipPath id="clip0"><rect y="-0.000488281" width="32" height="32" fill="white"></rect></clipPath></defs></svg> 