<?xml version="1.0" encoding="UTF-8"?> <svg xmlns="http://www.w3.org/2000/svg" width="32" height="32" viewBox="0 0 32 32" fill="none"><path d="M16 32C24.8366 32 32 24.8366 32 16C32 7.16344 24.8366 0 16 0C7.16344 0 0 7.16344 0 16C0 24.8366 7.16344 32 16 32Z" fill="#B9B6F1"></path><path d="M15.36 8.32031C10.765 8.32031 7.04004 12.0453 7.04004 16.6403C7.04004 21.2353 10.765 24.9603 15.36 24.9603C19.955 24.9603 23.68 21.2353 23.68 16.6403H16.0011C15.6471 16.6403 15.36 16.3538 15.36 15.9992V8.32031Z" fill="#8282DC"></path><path d="M25.92 15.0381H17.5973C17.2453 15.0381 16.96 14.7508 16.96 14.4008V6.07812C21.9084 6.07812 25.92 10.0897 25.92 15.0381Z" fill="#5745B1"></path></svg> 