<?xml version="1.0" encoding="UTF-8"?> <svg xmlns="http://www.w3.org/2000/svg" width="95" height="85" viewBox="0 0 95 85" fill="none"><path fill-rule="evenodd" clip-rule="evenodd" d="M47.5 84.5194C79.3775 88.5676 95 66.2315 95 47.9343C95 29.6371 79.919 30.5319 70.3453 21.7626C61.9126 14.0383 59.7857 0 47.5 0C21.2665 0 0 21.4609 0 47.9343C0 74.4077 15.6225 80.4712 47.5 84.5194Z" fill="#D0ECEA"></path><mask id="mask0" maskUnits="userSpaceOnUse" x="0" y="0" width="95" height="85"><path fill-rule="evenodd" clip-rule="evenodd" d="M47.5 84.5194C79.3775 88.5676 95 66.2315 95 47.9343C95 29.6371 79.919 30.5319 70.3453 21.7626C61.9126 14.0383 59.7857 0 47.5 0C21.2665 0 0 21.4609 0 47.9343C0 74.4077 15.6225 80.4712 47.5 84.5194Z" fill="white"></path></mask><g mask="url(#mask0)"><path opacity="0.6" fill-rule="evenodd" clip-rule="evenodd" d="M42.3221 39.6585L49.3719 39.6585C50.6541 39.6585 51.6935 38.6336 51.6935 37.3693V37.2892C51.6935 36.0249 50.6541 35 49.3719 35H42.3221C41.0399 35 40.0005 36.0249 40.0005 37.2892V37.3693C40.0005 38.6336 41.0399 39.6585 42.3221 39.6585Z" fill="#45D2CA"></path><path d="M59.1548 41.9968H33.7633C28.7501 41.9968 24.6484 46.0894 24.6484 51.0914V84.8711C24.6484 89.8731 28.7501 93.9657 33.7633 93.9657H59.0897C64.1029 93.9657 68.2046 89.8731 68.2046 84.8711V51.0914C68.2697 46.0894 64.168 41.9968 59.1548 41.9968Z" fill="#423F6B"></path><path opacity="0.6" d="M51.6463 51.0913H39.9267C38.5697 51.0913 37.4595 52.2606 37.4595 53.6898C37.4595 55.1189 38.5697 56.2882 39.9267 56.2882H51.6463C53.0033 56.2882 54.1136 55.1189 54.1136 53.6898C54.1136 52.2606 53.0033 51.0913 51.6463 51.0913Z" fill="#67A6D4"></path></g></svg> 