<?xml version="1.0" encoding="UTF-8"?> <svg xmlns="http://www.w3.org/2000/svg" width="32" height="32" viewBox="0 0 32 32" fill="none"><path d="M16 32C24.8366 32 32 24.8366 32 16C32 7.16344 24.8366 0 16 0C7.16344 0 0 7.16344 0 16C0 24.8366 7.16344 32 16 32Z" fill="#B9B6F1"></path><path d="M22.72 9.91999V8.48009C22.72 7.86221 22.2173 7.35999 21.5973 7.35999H10.4028C9.78236 7.35999 9.28003 7.86147 9.28003 8.48009V9.91999H22.72Z" fill="#8282DC"></path><path d="M24 13.4412V12.0013C24 11.3835 23.4991 10.8812 22.8813 10.8812H9.11873C8.50082 10.8812 8 11.3827 8 12.0013V13.4412H24Z" fill="#8282DC"></path><path d="M25.28 15.5201C25.28 14.9026 24.7789 14.4 24.1608 14.4H7.83918C7.22121 14.4 6.71997 14.9015 6.71997 15.5201V22.88C6.71997 23.4974 7.22106 24 7.83918 24H24.1608C24.7787 24 25.28 23.4986 25.28 22.88V15.5201Z" fill="#5745B1"></path></svg> 