<?xml version="1.0" encoding="UTF-8"?> <svg xmlns="http://www.w3.org/2000/svg" width="32" height="32" viewBox="0 0 32 32" fill="none"><path d="M16 32C24.8366 32 32 24.8366 32 16C32 7.16344 24.8366 0 16 0C7.16344 0 0 7.16344 0 16C0 24.8366 7.16344 32 16 32Z" fill="#B9B6F1"></path><path d="M15.9977 26.5577C21.8299 26.5577 26.5577 21.8299 26.5577 15.9977C26.5577 10.1656 21.8299 5.43774 15.9977 5.43774C10.1656 5.43774 5.43774 10.1656 5.43774 15.9977C5.43774 21.8299 10.1656 26.5577 15.9977 26.5577Z" fill="#8282DC"></path><path d="M20.4831 18.2086C20.4831 20.0653 19.2704 21.4871 16.8115 21.738V22.5911C16.8115 23.0093 16.4578 23.3606 16.0368 23.3606C15.5652 23.3606 15.2115 23.0093 15.2115 22.5911V21.7548C13.8641 21.6377 12.2136 21.1191 11.6915 20.2995C11.5904 20.1322 11.5231 19.9649 11.5231 19.7642C11.5231 19.1453 12.0452 18.6602 12.6346 18.6602C12.8704 18.6602 13.0894 18.7271 13.2915 18.8609C13.8304 19.2289 14.4704 19.5133 15.2115 19.6471V17.0042C13.4768 16.5693 11.5904 15.9337 11.5904 13.6588C11.5904 11.9693 12.9378 10.5307 15.2115 10.2966V9.41002C15.2115 8.99184 15.5652 8.64056 16.0368 8.64056C16.4578 8.64056 16.8115 8.99184 16.8115 9.41002V10.33C17.8052 10.4471 19.2368 10.8318 19.7252 11.5511C19.8262 11.7017 19.8936 11.8857 19.8936 12.0697C19.8936 12.7053 19.2873 13.1569 18.6978 13.1569C18.5968 13.1569 18.4957 13.1402 18.3778 13.1068C17.8894 12.9729 17.3336 12.5882 16.8115 12.4711V14.8297C18.5462 15.2646 20.4831 15.9337 20.4831 18.2086ZM15.2115 14.4115V12.3707C14.4536 12.4711 14.0325 12.8893 14.0325 13.458C14.0325 13.9431 14.5041 14.2108 15.2115 14.4115ZM18.0578 18.4762C18.0578 17.9242 17.5357 17.6398 16.8115 17.4057V19.6471C17.6368 19.4798 18.0578 18.9948 18.0578 18.4762Z" fill="#5745B1"></path></svg> 