<?xml version="1.0" encoding="UTF-8"?> <svg xmlns="http://www.w3.org/2000/svg" width="32" height="32" viewBox="0 0 32 32" fill="none"><path d="M16 32C24.8366 32 32 24.8366 32 16C32 7.16344 24.8366 0 16 0C7.16344 0 0 7.16344 0 16C0 24.8366 7.16344 32 16 32Z" fill="#B9B6F1"></path><path d="M10.2401 12.807V9.92906C10.2401 9.73209 10.3541 9.60698 10.4493 9.60698H21.5509C21.6461 9.60698 21.7601 9.73195 21.7601 9.92911V12.647C21.7601 13.1772 22.1899 13.607 22.7201 13.607C23.2503 13.607 23.6801 13.1772 23.6801 12.647V9.92911C23.6801 8.70886 22.7477 7.68698 21.5509 7.68698H10.4493C9.25201 7.68698 8.32007 8.70934 8.32007 9.92906V12.807C8.32007 13.3372 8.74988 13.767 9.28007 13.767C9.81026 13.767 10.2401 13.3372 10.2401 12.807ZM21.7601 19.527V22.0883C21.7601 22.2829 21.6467 22.407 21.5509 22.407H10.4493C10.3541 22.407 10.2401 22.282 10.2401 22.0849V19.367C10.2401 18.8368 9.81026 18.407 9.28007 18.407C8.74988 18.407 8.32007 18.8368 8.32007 19.367V22.0849C8.32007 23.3051 9.25241 24.327 10.4493 24.327H21.5509C22.7475 24.327 23.6801 23.3067 23.6801 22.0883V19.527C23.6801 18.9968 23.2503 18.567 22.7201 18.567C22.1899 18.567 21.7601 18.9968 21.7601 19.527Z" fill="#8282DC"></path><path d="M24.002 16.9669C24.5294 16.9669 24.9591 16.537 24.9591 16.0068C24.9591 15.4777 24.5306 15.0468 24.002 15.0468H7.99625C7.4688 15.0468 7.03912 15.4767 7.03912 16.0068C7.03912 16.536 7.46764 16.9669 7.99625 16.9669H24.002Z" fill="#5745B1"></path></svg> 