<?xml version="1.0" encoding="UTF-8"?> <svg xmlns="http://www.w3.org/2000/svg" width="32" height="32" viewBox="0 0 32 32" fill="none"><path d="M16 32C24.8366 32 32 24.8366 32 16C32 7.16344 24.8366 0 16 0C7.16344 0 0 7.16344 0 16C0 24.8366 7.16344 32 16 32Z" fill="#B9B6F1"></path><path d="M11.8398 18.2383H20.1598V27.2202C20.1598 27.7518 19.787 27.9705 19.328 27.7093L16.2793 25.974C16.1249 25.8862 15.8753 25.8859 15.7204 25.974L12.6717 27.7093C12.2123 27.9708 11.8398 27.7554 11.8398 27.2202V18.2383Z" fill="#8282DC"></path><path d="M17.0654 21.396C16.4769 21.0054 15.5238 21.0047 14.9344 21.396L14.4365 21.7266C13.848 22.1172 13.1409 21.9122 12.855 21.2637L12.6001 20.6857C12.3151 20.0394 11.5089 19.5187 10.8039 19.5227L10.228 19.526C9.52098 19.5301 9.03073 18.9675 9.13377 18.2642L9.22561 17.6373C9.3283 16.9364 8.93203 16.0576 8.33455 15.6706L7.84065 15.3507C7.24585 14.9654 7.13799 14.2172 7.59846 13.681L7.99594 13.2182C8.45699 12.6814 8.59496 11.7271 8.30193 11.0819L8.04074 10.5068C7.74868 9.86383 8.06477 9.18034 8.7379 8.98283L9.30011 8.81786C9.9772 8.61919 10.6028 7.89135 10.6981 7.18693L10.783 6.55907C10.878 5.85701 11.5061 5.4564 12.177 5.6616L12.7374 5.83298C13.4122 6.03937 14.3289 5.76658 14.7834 5.22519L15.1758 4.75786C15.6309 4.21579 16.3694 4.21647 16.824 4.75786L17.2163 5.22519C17.6715 5.76726 18.5915 6.03817 19.2624 5.83298L19.8228 5.6616C20.4976 5.4552 21.1214 5.85466 21.2167 6.55907L21.3017 7.18693C21.3967 7.889 22.0265 8.62035 22.6996 8.81786L23.2619 8.98283C23.939 9.1815 24.2521 9.86167 23.959 10.5068L23.6978 11.0819C23.4058 11.7249 23.5434 12.6821 24.0038 13.2182L24.4013 13.681C24.8624 14.2179 24.7566 14.9637 24.1591 15.3507L23.6652 15.6706C23.0704 16.0559 22.6711 16.9341 22.7742 17.6373L22.866 18.2642C22.9687 18.9651 22.4767 19.5301 21.7718 19.526L21.1958 19.5227C20.4888 19.5187 19.6856 20.0372 19.3997 20.6857L19.1448 21.2637C18.8598 21.91 18.1527 22.1179 17.5633 21.7266L17.0654 21.396Z" fill="#5745B1"></path><path d="M16.0002 17.9203C18.6512 17.9203 20.8002 15.7713 20.8002 13.1203C20.8002 10.4693 18.6512 8.32031 16.0002 8.32031C13.3492 8.32031 11.2002 10.4693 11.2002 13.1203C11.2002 15.7713 13.3492 17.9203 16.0002 17.9203Z" fill="#8282DC"></path></svg> 