<?xml version="1.0" encoding="UTF-8"?> <svg xmlns="http://www.w3.org/2000/svg" width="79" height="72" viewBox="0 0 79 72" fill="none"><g clip-path="url(#clip0)"><rect width="79" height="72" fill="white"></rect><path opacity="0.2" fill-rule="evenodd" clip-rule="evenodd" d="M56.9857 69.8733C76.6081 64.6155 82.66 43.001 77.345 23.1649C74.519 12.6184 65.4263 8.229 56.8121 5.48432C48.3679 2.79379 24.8784 -1.53813 15.6889 0.924202C-3.93349 6.18199 -1.43228 26.6304 3.8352 47.4314C9.10268 68.2323 37.3634 75.1311 56.9857 69.8733Z" fill="#8283DC"></path><mask id="mask0" maskUnits="userSpaceOnUse" x="-7" y="-13" width="95" height="95"><path fill-rule="evenodd" clip-rule="evenodd" d="M56.9857 69.8733C76.6081 64.6155 82.66 43.001 77.345 23.1649C74.519 12.6184 65.4263 8.229 56.8121 5.48432C48.3679 2.79379 24.8784 -1.53813 15.6889 0.924202C-3.9335 6.18199 -1.43228 26.6304 3.8352 47.4314C9.10268 68.2323 37.3634 75.1311 56.9857 69.8733Z" fill="white"></path></mask><g mask="url(#mask0)"><path d="M21.8122 40.2278C21.8122 38.3796 23.2577 36.4779 25.0405 35.9804L52.9939 28.1794C55.6665 27.4336 57.8331 29.0809 57.8331 31.8604V65.3569C57.8331 67.2109 56.3312 68.7137 54.4767 68.7137H25.1686C23.3149 68.7137 21.8122 67.2211 21.8122 65.3673V40.2278Z" fill="#2C295D"></path><path d="M21.8122 39.7278H62.0266C63.8744 39.7278 65.3724 41.2204 65.3724 43.0742V68.2138C65.3724 70.062 63.8729 71.5602 62.0266 71.5602H25.158C23.3101 71.5602 21.8122 70.0676 21.8122 68.2138V39.7278Z" fill="#8283DC"></path><path d="M48.6185 55.6439C48.6185 52.4054 51.2394 49.78 54.4749 49.78H65.3798C66.301 49.78 67.0478 50.5315 67.0478 51.4603V59.8275C67.0478 60.7555 66.3025 61.5078 65.3798 61.5078H54.4749C51.2405 61.5078 48.6185 58.8758 48.6185 55.6439ZM54.4823 58.157C55.8703 58.157 56.9954 57.0318 56.9954 55.6439C56.9954 54.256 55.8703 53.1308 54.4823 53.1308C53.0944 53.1308 51.9693 54.256 51.9693 55.6439C51.9693 57.0318 53.0944 58.157 54.4823 58.157Z" fill="#2C295D"></path></g></g><defs><clipPath id="clip0"><rect width="79" height="72" fill="white"></rect></clipPath></defs></svg> 