<?xml version="1.0" encoding="UTF-8"?> <svg xmlns="http://www.w3.org/2000/svg" width="32" height="32" viewBox="0 0 32 32" fill="none"><path d="M16 32C24.8366 32 32 24.8366 32 16C32 7.16344 24.8366 0 16 0C7.16344 0 0 7.16344 0 16C0 24.8366 7.16344 32 16 32Z" fill="#B9B6F1"></path><path d="M7.35986 9.0181C7.35986 8.63272 7.67365 8.32031 8.05472 8.32031H22.025C22.4088 8.32031 22.7199 8.63274 22.7199 9.0181V23.6225C22.7199 24.0079 22.4061 24.3203 22.025 24.3203H8.05472C7.67096 24.3203 7.35986 24.0079 7.35986 23.6225V9.0181Z" fill="#5745B1"></path><path d="M7.36117 9.0186C7.33779 8.63295 7.63013 8.32031 8.01364 8.32031H22.2081C22.5918 8.32031 22.8883 8.63825 22.8757 9.02173C22.8757 9.02173 22.6574 12.526 23.3546 16.0308C24.0518 19.5356 26.4436 22.4821 26.4436 22.4821C26.6746 22.7904 26.5506 23.0403 26.1676 23.0403H12.3206C11.9372 23.0403 11.4061 22.8132 11.1525 22.5258C11.1525 22.5258 9.20161 20.7622 8.36465 16.7317C7.52768 12.7013 7.36117 9.0186 7.36117 9.0186ZM13.5416 15.7907C13.2012 15.4485 12.6494 15.4485 12.3091 15.7907C11.9687 16.1329 11.9687 16.6876 12.3091 17.0298L14.3936 19.1255C14.7339 19.4677 15.2857 19.4677 15.6261 19.1255L20.1336 14.5937C20.474 14.2516 20.474 13.6968 20.1336 13.3546C19.7933 13.0124 19.2415 13.0124 18.9011 13.3546L15.0098 17.2668L13.5416 15.7907Z" fill="#8282DC"></path></svg> 