<?xml version="1.0" encoding="UTF-8"?> <svg xmlns="http://www.w3.org/2000/svg" width="32" height="32" viewBox="0 0 32 32" fill="none"><path d="M16 32C24.8366 32 32 24.8366 32 16C32 7.16344 24.8366 0 16 0C7.16344 0 0 7.16344 0 16C0 24.8366 7.16344 32 16 32Z" fill="#B9B6F1"></path><path d="M15.9998 26.2417C10.3444 26.2417 5.75977 21.6571 5.75977 16.0017C5.75977 10.3463 10.3444 5.76172 15.9998 5.76172C21.6552 5.76172 26.2398 10.3463 26.2398 16.0017C26.2398 21.6571 21.6552 26.2417 15.9998 26.2417ZM15.9998 22.7217C19.7111 22.7217 22.7198 19.7131 22.7198 16.0017C22.7198 12.2904 19.7111 9.28172 15.9998 9.28172C12.2884 9.28172 9.27977 12.2904 9.27977 16.0017C9.27977 19.7131 12.2884 22.7217 15.9998 22.7217ZM15.9998 19.8417C13.879 19.8417 12.1598 18.1225 12.1598 16.0017C12.1598 13.8809 13.879 12.1617 15.9998 12.1617C18.1205 12.1617 19.8398 13.8809 19.8398 16.0017C19.8398 18.1225 18.1205 19.8417 15.9998 19.8417Z" fill="#8282DC"></path><path d="M19.9328 13.3734L17.1002 16.206C16.725 16.5812 16.1162 16.5807 15.742 16.2065C15.3671 15.8316 15.3672 15.2237 15.7426 14.8483L18.698 11.8929L18.4713 10.8033C18.3991 10.4563 18.5446 9.97107 18.7914 9.7242L22.6364 5.87927C22.8853 5.63028 23.1458 5.71038 23.2179 6.05668L23.7107 8.42528L26.0793 8.91811C26.4263 8.9903 26.5036 9.25278 26.2567 9.49965L22.4118 13.3446C22.1628 13.5936 21.679 13.7367 21.3327 13.6647L19.9328 13.3734Z" fill="#5745B1"></path></svg> 