<svg width="180" height="152" viewBox="0 0 180 152" fill="none" xmlns="http://www.w3.org/2000/svg">
<path fill-rule="evenodd" clip-rule="evenodd" d="M30.6 3.59552C29.6059 3.59552 28.8 2.79064 28.8 1.79776C28.8 0.804884 29.6059 0 30.6 0C31.5941 0 32.4 0.804884 32.4 1.79776C32.4 2.79064 31.5941 3.59552 30.6 3.59552ZM30.6 32.3598C29.6059 32.3598 28.8 31.5549 28.8 30.562C28.8 29.5691 29.6059 28.7642 30.6 28.7642C31.5941 28.7642 32.4 29.5691 32.4 30.562C32.4 31.5549 31.5941 32.3598 30.6 32.3598ZM59.4 3.59552C58.4059 3.59552 57.6 2.79064 57.6 1.79776C57.6 0.804884 58.4059 0 59.4 0C60.3941 0 61.2 0.804884 61.2 1.79776C61.2 2.79064 60.3941 3.59552 59.4 3.59552ZM59.4 32.3598C58.4059 32.3598 57.6 31.5549 57.6 30.562C57.6 29.5691 58.4059 28.7642 59.4 28.7642C60.3941 28.7642 61.2 29.5691 61.2 30.562C61.2 31.5549 60.3941 32.3598 59.4 32.3598ZM88.2 32.3598C87.2059 32.3598 86.4 31.5549 86.4 30.562C86.4 29.5691 87.2059 28.7642 88.2 28.7642C89.1941 28.7642 90 29.5691 90 30.562C90 31.5549 89.1941 32.3598 88.2 32.3598ZM1.80002 3.59552C0.805902 3.59552 0 2.79064 0 1.79776C0 0.804884 0.805902 0 1.80002 0C2.79413 0 3.60003 0.804884 3.60003 1.79776C3.60003 2.79064 2.79413 3.59552 1.80002 3.59552ZM117 3.59552C116.006 3.59552 115.2 2.79064 115.2 1.79776C115.2 0.804884 116.006 0 117 0C117.994 0 118.8 0.804884 118.8 1.79776C118.8 2.79064 117.994 3.59552 117 3.59552ZM117 32.3598C116.006 32.3598 115.2 31.5549 115.2 30.562C115.2 29.5691 116.006 28.7642 117 28.7642C117.994 28.7642 118.8 29.5691 118.8 30.562C118.8 31.5549 117.994 32.3598 117 32.3598ZM145.8 3.59552C144.806 3.59552 144 2.79064 144 1.79776C144 0.804884 144.806 0 145.8 0C146.794 0 147.6 0.804884 147.6 1.79776C147.6 2.79064 146.794 3.59552 145.8 3.59552ZM145.8 32.3598C144.806 32.3598 144 31.5549 144 30.562C144 29.5691 144.806 28.7642 145.8 28.7642C146.794 28.7642 147.6 29.5691 147.6 30.562C147.6 31.5549 146.794 32.3598 145.8 32.3598ZM174.6 32.3598C173.606 32.3598 172.8 31.5549 172.8 30.562C172.8 29.5691 173.606 28.7642 174.6 28.7642C175.594 28.7642 176.4 29.5691 176.4 30.562C176.4 31.5549 175.594 32.3598 174.6 32.3598ZM88.2 3.59552C87.2059 3.59552 86.4 2.79064 86.4 1.79776C86.4 0.804884 87.2059 0 88.2 0C89.1941 0 90 0.804884 90 1.79776C90 2.79064 89.1941 3.59552 88.2 3.59552ZM30.6 61.124C29.6059 61.124 28.8 60.3191 28.8 59.3262C28.8 58.3333 29.6059 57.5285 30.6 57.5285C31.5941 57.5285 32.4 58.3333 32.4 59.3262C32.4 60.3191 31.5941 61.124 30.6 61.124ZM30.6 89.8882C29.6059 89.8882 28.8 89.0833 28.8 88.0904C28.8 87.0976 29.6059 86.2927 30.6 86.2927C31.5941 86.2927 32.4 87.0976 32.4 88.0904C32.4 89.0833 31.5941 89.8882 30.6 89.8882ZM59.4 61.124C58.4059 61.124 57.6 60.3191 57.6 59.3262C57.6 58.3333 58.4059 57.5285 59.4 57.5285C60.3941 57.5285 61.2 58.3333 61.2 59.3262C61.2 60.3191 60.3941 61.124 59.4 61.124ZM59.4 89.8882C58.4059 89.8882 57.6 89.0833 57.6 88.0904C57.6 87.0976 58.4059 86.2927 59.4 86.2927C60.3941 86.2927 61.2 87.0976 61.2 88.0904C61.2 89.0833 60.3941 89.8882 59.4 89.8882ZM88.2 89.8882C87.2059 89.8882 86.4 89.0833 86.4 88.0904C86.4 87.0976 87.2059 86.2927 88.2 86.2927C89.1941 86.2927 90 87.0976 90 88.0904C90 89.0833 89.1941 89.8882 88.2 89.8882ZM1.80002 61.124C0.805902 61.124 0 60.3191 0 59.3262C0 58.3333 0.805902 57.5285 1.80002 57.5285C2.79413 57.5285 3.60003 58.3333 3.60003 59.3262C3.60003 60.3191 2.79413 61.124 1.80002 61.124ZM117 61.124C116.006 61.124 115.2 60.3191 115.2 59.3262C115.2 58.3333 116.006 57.5285 117 57.5285C117.994 57.5285 118.8 58.3333 118.8 59.3262C118.8 60.3191 117.994 61.124 117 61.124ZM117 89.8882C116.006 89.8882 115.2 89.0833 115.2 88.0904C115.2 87.0976 116.006 86.2927 117 86.2927C117.994 86.2927 118.8 87.0976 118.8 88.0904C118.8 89.0833 117.994 89.8882 117 89.8882ZM145.8 61.124C144.806 61.124 144 60.3191 144 59.3262C144 58.3333 144.806 57.5285 145.8 57.5285C146.794 57.5285 147.6 58.3333 147.6 59.3262C147.6 60.3191 146.794 61.124 145.8 61.124ZM145.8 89.8882C144.806 89.8882 144 89.0833 144 88.0904C144 87.0976 144.806 86.2927 145.8 86.2927C146.794 86.2927 147.6 87.0976 147.6 88.0904C147.6 89.0833 146.794 89.8882 145.8 89.8882ZM174.6 89.8882C173.606 89.8882 172.8 89.0833 172.8 88.0904C172.8 87.0976 173.606 86.2927 174.6 86.2927C175.594 86.2927 176.4 87.0976 176.4 88.0904C176.4 89.0833 175.594 89.8882 174.6 89.8882ZM88.2 61.124C87.2059 61.124 86.4 60.3191 86.4 59.3262C86.4 58.3333 87.2059 57.5285 88.2 57.5285C89.1941 57.5285 90 58.3333 90 59.3262C90 60.3191 89.1941 61.124 88.2 61.124ZM149.4 151.012C148.406 151.012 147.6 150.207 147.6 149.214C147.6 148.222 148.406 147.417 149.4 147.417C150.394 147.417 151.2 148.222 151.2 149.214C151.2 150.207 150.394 151.012 149.4 151.012ZM149.4 122.248C148.406 122.248 147.6 121.443 147.6 120.45C147.6 119.457 148.406 118.652 149.4 118.652C150.394 118.652 151.2 119.457 151.2 120.45C151.2 121.443 150.394 122.248 149.4 122.248ZM120.6 151.012C119.606 151.012 118.8 150.207 118.8 149.214C118.8 148.222 119.606 147.417 120.6 147.417C121.594 147.417 122.4 148.222 122.4 149.214C122.4 150.207 121.594 151.012 120.6 151.012ZM120.6 122.248C119.606 122.248 118.8 121.443 118.8 120.45C118.8 119.457 119.606 118.652 120.6 118.652C121.594 118.652 122.4 119.457 122.4 120.45C122.4 121.443 121.594 122.248 120.6 122.248ZM91.8 122.248C90.8059 122.248 90 121.443 90 120.45C90 119.457 90.8059 118.652 91.8 118.652C92.7941 118.652 93.6 119.457 93.6 120.45C93.6 121.443 92.7941 122.248 91.8 122.248ZM178.2 151.012C177.206 151.012 176.4 150.207 176.4 149.214C176.4 148.222 177.206 147.417 178.2 147.417C179.194 147.417 180 148.222 180 149.214C180 150.207 179.194 151.012 178.2 151.012ZM63 151.012C62.0059 151.012 61.2 150.207 61.2 149.214C61.2 148.222 62.0059 147.417 63 147.417C63.9941 147.417 64.8 148.222 64.8 149.214C64.8 150.207 63.9941 151.012 63 151.012ZM63 122.248C62.0059 122.248 61.2 121.443 61.2 120.45C61.2 119.457 62.0059 118.652 63 118.652C63.9941 118.652 64.8 119.457 64.8 120.45C64.8 121.443 63.9941 122.248 63 122.248ZM34.2 151.012C33.2059 151.012 32.4 150.207 32.4 149.214C32.4 148.222 33.2059 147.417 34.2 147.417C35.1941 147.417 36 148.222 36 149.214C36 150.207 35.1941 151.012 34.2 151.012ZM34.2 122.248C33.2059 122.248 32.4 121.443 32.4 120.45C32.4 119.457 33.2059 118.652 34.2 118.652C35.1941 118.652 36 119.457 36 120.45C36 121.443 35.1941 122.248 34.2 122.248ZM5.39997 122.248C4.40586 122.248 3.60003 121.443 3.60003 120.45C3.60003 119.457 4.40586 118.652 5.39997 118.652C6.39408 118.652 7.19998 119.457 7.19998 120.45C7.19998 121.443 6.39408 122.248 5.39997 122.248ZM91.8 151.012C90.8059 151.012 90 150.207 90 149.214C90 148.222 90.8059 147.417 91.8 147.417C92.7941 147.417 93.6 148.222 93.6 149.214C93.6 150.207 92.7941 151.012 91.8 151.012Z" fill="#FF9673"/>
</svg>
