<svg width="192" height="195" viewBox="0 0 192 195" fill="none" xmlns="http://www.w3.org/2000/svg">
<path d="M96 100.343C95.0848 100.343 94.3429 99.5985 94.3429 98.6803C94.3429 97.762 95.0848 97.0177 96 97.0177C96.9152 97.0177 97.6571 97.762 97.6571 98.6803C97.6571 99.5985 96.9152 100.343 96 100.343ZM64.4739 100.343C63.5588 100.343 62.8169 99.5985 62.8169 98.6803C62.8169 97.762 63.5588 97.0177 64.4739 97.0177C65.3891 97.0177 66.131 97.762 66.131 98.6803C66.131 99.5985 65.3891 100.343 64.4739 100.343ZM80.237 71.0723C79.3218 71.0723 78.5799 70.3279 78.5799 69.4097C78.5799 68.4915 79.3218 67.7471 80.237 67.7471C81.1521 67.7471 81.894 68.4915 81.894 69.4097C81.894 70.3279 81.1521 71.0723 80.237 71.0723ZM111.763 71.0723C110.848 71.0723 110.106 70.3279 110.106 69.4097C110.106 68.4915 110.848 67.7471 111.763 67.7471C112.678 67.7471 113.42 68.4915 113.42 69.4097C113.42 70.3279 112.678 71.0723 111.763 71.0723ZM127.526 100.343C126.611 100.343 125.869 99.5985 125.869 98.6803C125.869 97.762 126.611 97.0177 127.526 97.0177C128.441 97.0177 129.183 97.762 129.183 98.6803C129.183 99.5985 128.441 100.343 127.526 100.343ZM80.237 127.253C79.3218 127.253 78.5799 126.508 78.5799 125.59C78.5799 124.672 79.3218 123.928 80.237 123.928C81.1521 123.928 81.894 124.672 81.894 125.59C81.894 126.508 81.1521 127.253 80.237 127.253ZM111.763 127.253C110.848 127.253 110.106 126.508 110.106 125.59C110.106 124.672 110.848 123.928 111.763 123.928C112.678 123.928 113.42 124.672 113.42 125.59C113.42 126.508 112.678 127.253 111.763 127.253ZM80.237 37.0807C79.3218 37.0807 78.5799 36.3363 78.5799 35.4181C78.5799 34.4999 79.3218 33.7555 80.237 33.7555C81.1521 33.7555 81.894 34.4999 81.894 35.4181C81.894 36.3363 81.1521 37.0807 80.237 37.0807ZM111.763 37.0807C110.848 37.0807 110.106 36.3363 110.106 35.4181C110.106 34.4999 110.848 33.7555 111.763 33.7555C112.678 33.7555 113.42 34.4999 113.42 35.4181C113.42 36.3363 112.678 37.0807 111.763 37.0807ZM140.936 52.8962C140.021 52.8962 139.279 52.1519 139.279 51.2337C139.279 50.3154 140.021 49.5711 140.936 49.5711C141.852 49.5711 142.593 50.3154 142.593 51.2337C142.593 52.1519 141.852 52.8962 140.936 52.8962ZM156.699 82.1668C155.784 82.1668 155.042 81.4224 155.042 80.5042C155.042 79.586 155.784 78.8416 156.699 78.8416C157.615 78.8416 158.356 79.586 158.356 80.5042C158.356 81.4224 157.615 82.1668 156.699 82.1668ZM156.699 116.158C155.784 116.158 155.042 115.414 155.042 114.496C155.042 113.578 155.784 112.833 156.699 112.833C157.615 112.833 158.356 113.578 158.356 114.496C158.356 115.414 157.615 116.158 156.699 116.158ZM140.936 145.429C140.021 145.429 139.279 144.685 139.279 143.766C139.279 142.848 140.021 142.104 140.936 142.104C141.852 142.104 142.593 142.848 142.593 143.766C142.593 144.685 141.852 145.429 140.936 145.429ZM111.763 161.244C110.848 161.244 110.106 160.5 110.106 159.582C110.106 158.664 110.848 157.919 111.763 157.919C112.678 157.919 113.42 158.664 113.42 159.582C113.42 160.5 112.678 161.244 111.763 161.244ZM80.237 161.244C79.3218 161.244 78.5799 160.5 78.5799 159.582C78.5799 158.664 79.3218 157.919 80.237 157.919C81.1521 157.919 81.894 158.664 81.894 159.582C81.894 160.5 81.1521 161.244 80.237 161.244ZM51.0636 145.429C50.1484 145.429 49.4065 144.685 49.4065 143.766C49.4065 142.848 50.1484 142.104 51.0636 142.104C51.9787 142.104 52.7206 142.848 52.7206 143.766C52.7206 144.685 51.9787 145.429 51.0636 145.429ZM35.3005 116.158C34.3854 116.158 33.6435 115.414 33.6435 114.496C33.6435 113.578 34.3854 112.833 35.3005 112.833C36.2157 112.833 36.9576 113.578 36.9576 114.496C36.9576 115.414 36.2157 116.158 35.3005 116.158ZM35.3005 82.1668C34.3854 82.1668 33.6435 81.4224 33.6435 80.5042C33.6435 79.586 34.3854 78.8416 35.3005 78.8416C36.2157 78.8416 36.9576 79.586 36.9576 80.5042C36.9576 81.4224 36.2157 82.1668 35.3005 82.1668ZM51.0636 52.8962C50.1484 52.8962 49.4065 52.1519 49.4065 51.2337C49.4065 50.3154 50.1484 49.5711 51.0636 49.5711C51.9787 49.5711 52.7206 50.3154 52.7206 51.2337C52.7206 52.1519 51.9787 52.8962 51.0636 52.8962ZM96 3.32516C95.0848 3.32516 94.3429 2.5808 94.3429 1.66258C94.3429 0.744362 95.0848 0 96 0C96.9152 0 97.6571 0.744362 97.6571 1.66258C97.6571 2.5808 96.9152 3.32516 96 3.32516ZM129.643 10.1707C128.728 10.1707 127.986 9.42633 127.986 8.50812C127.986 7.5899 128.728 6.84554 129.643 6.84554C130.559 6.84554 131.301 7.5899 131.301 8.50812C131.301 9.42633 130.559 10.1707 129.643 10.1707ZM156.699 25.7502C155.784 25.7502 155.042 25.0058 155.042 24.0876C155.042 23.1694 155.784 22.425 156.699 22.425C157.615 22.425 158.356 23.1694 158.356 24.0876C158.356 25.0058 157.615 25.7502 156.699 25.7502ZM179.285 52.8962C178.37 52.8962 177.628 52.1519 177.628 51.2337C177.628 50.3154 178.37 49.5711 179.285 49.5711C180.2 49.5711 180.942 50.3154 180.942 51.2337C180.942 52.1519 180.2 52.8962 179.285 52.8962ZM190.343 82.1668C189.428 82.1668 188.686 81.4224 188.686 80.5042C188.686 79.586 189.428 78.8416 190.343 78.8416C191.258 78.8416 192 79.586 192 80.5042C192 81.4224 191.258 82.1668 190.343 82.1668ZM190.343 116.158C189.428 116.158 188.686 115.414 188.686 114.496C188.686 113.578 189.428 112.833 190.343 112.833C191.258 112.833 192 113.578 192 114.496C192 115.414 191.258 116.158 190.343 116.158ZM179.285 147.553C178.37 147.553 177.628 146.809 177.628 145.891C177.628 144.973 178.37 144.228 179.285 144.228C180.2 144.228 180.942 144.973 180.942 145.891C180.942 146.809 180.2 147.553 179.285 147.553ZM156.699 172.575C155.784 172.575 155.042 171.831 155.042 170.912C155.042 169.994 155.784 169.25 156.699 169.25C157.615 169.25 158.356 169.994 158.356 170.912C158.356 171.831 157.615 172.575 156.699 172.575ZM127.526 190.515C126.611 190.515 125.869 189.771 125.869 188.852C125.869 187.934 126.611 187.19 127.526 187.19C128.441 187.19 129.183 187.934 129.183 188.852C129.183 189.771 128.441 190.515 127.526 190.515ZM96 195C95.0848 195 94.3429 194.256 94.3429 193.337C94.3429 192.419 95.0848 191.675 96 191.675C96.9152 191.675 97.6571 192.419 97.6571 193.337C97.6571 194.256 96.9152 195 96 195ZM64.4739 190.515C63.5588 190.515 62.8169 189.771 62.8169 188.852C62.8169 187.934 63.5588 187.19 64.4739 187.19C65.3891 187.19 66.131 187.934 66.131 188.852C66.131 189.771 65.3891 190.515 64.4739 190.515ZM35.3005 172.575C34.3854 172.575 33.6435 171.831 33.6435 170.912C33.6435 169.994 34.3854 169.25 35.3005 169.25C36.2157 169.25 36.9576 169.994 36.9576 170.912C36.9576 171.831 36.2157 172.575 35.3005 172.575ZM15.0674 147.553C14.1522 147.553 13.4103 146.809 13.4103 145.891C13.4103 144.973 14.1522 144.228 15.0674 144.228C15.9826 144.228 16.7245 144.973 16.7245 145.891C16.7245 146.809 15.9826 147.553 15.0674 147.553ZM1.65706 116.158C0.741891 116.158 0 115.414 0 114.496C0 113.578 0.741891 112.833 1.65706 112.833C2.57223 112.833 3.31412 113.578 3.31412 114.496C3.31412 115.414 2.57223 116.158 1.65706 116.158ZM1.65706 82.1668C0.741891 82.1668 0 81.4224 0 80.5042C0 79.586 0.741891 78.8416 1.65706 78.8416C2.57223 78.8416 3.31412 79.586 3.31412 80.5042C3.31412 81.4224 2.57223 82.1668 1.65706 82.1668ZM15.0674 52.8962C14.1522 52.8962 13.4103 52.1519 13.4103 51.2337C13.4103 50.3154 14.1522 49.5711 15.0674 49.5711C15.9826 49.5711 16.7245 50.3154 16.7245 51.2337C16.7245 52.1519 15.9826 52.8962 15.0674 52.8962ZM35.3005 25.7502C34.3854 25.7502 33.6435 25.0058 33.6435 24.0876C33.6435 23.1694 34.3854 22.425 35.3005 22.425C36.2157 22.425 36.9576 23.1694 36.9576 24.0876C36.9576 25.0058 36.2157 25.7502 35.3005 25.7502ZM64.4739 10.1707C63.5588 10.1707 62.8169 9.42633 62.8169 8.50812C62.8169 7.5899 63.5588 6.84554 64.4739 6.84554C65.3891 6.84554 66.131 7.5899 66.131 8.50812C66.131 9.42633 65.3891 10.1707 64.4739 10.1707Z" fill="#FFBC00"/>
</svg>
